<?xml version="1.0" encoding="utf-8" standalone="no"?>
<!DOCTYPE svg PUBLIC "-//W3C//DTD SVG 1.1//EN"
  "http://www.w3.org/Graphics/SVG/1.1/DTD/svg11.dtd">
<svg xmlns:xlink="http://www.w3.org/1999/xlink" width="720pt" height="432pt" viewBox="0 0 720 432" xmlns="http://www.w3.org/2000/svg" version="1.1">
 <metadata>
  <rdf:RDF xmlns:dc="http://purl.org/dc/elements/1.1/" xmlns:cc="http://creativecommons.org/ns#" xmlns:rdf="http://www.w3.org/1999/02/22-rdf-syntax-ns#">
   <cc:Work>
    <dc:type rdf:resource="http://purl.org/dc/dcmitype/StillImage"/>
    <dc:date>2025-01-03T14:29:59.319709</dc:date>
    <dc:format>image/svg+xml</dc:format>
    <dc:creator>
     <cc:Agent>
      <dc:title>Matplotlib v3.9.2, https://matplotlib.org/</dc:title>
     </cc:Agent>
    </dc:creator>
   </cc:Work>
  </rdf:RDF>
 </metadata>
 <defs>
  <style type="text/css">*{stroke-linejoin: round; stroke-linecap: butt}</style>
 </defs>
 <g id="figure_1">
  <g id="patch_1">
   <path d="M 0 432 
L 720 432 
L 720 0 
L 0 0 
z
" style="fill: #ffffff"/>
  </g>
  <g id="axes_1">
   <g id="patch_2">
    <path d="M 90 384.48 
L 648 384.48 
L 648 51.84 
L 90 51.84 
z
" style="fill: #ffffff"/>
   </g>
   <g id="matplotlib.axis_1">
    <g id="xtick_1">
     <g id="line2d_1">
      <path d="M 115.363636 384.48 
L 115.363636 51.84 
" clip-path="url(#p8ac731daca)" style="fill: none; stroke: #cccccc; stroke-width: 0.8; stroke-linecap: round"/>
     </g>
     <g id="text_1">
      <!-- 0.0 -->
      <g style="fill: #262626" transform="translate(107.412074 399.078438) scale(0.1 -0.1)">
       <defs>
        <path id="DejaVuSans-30" d="M 2034 4250 
Q 1547 4250 1301 3770 
Q 1056 3291 1056 2328 
Q 1056 1369 1301 889 
Q 1547 409 2034 409 
Q 2525 409 2770 889 
Q 3016 1369 3016 2328 
Q 3016 3291 2770 3770 
Q 2525 4250 2034 4250 
z
M 2034 4750 
Q 2819 4750 3233 4129 
Q 3647 3509 3647 2328 
Q 3647 1150 3233 529 
Q 2819 -91 2034 -91 
Q 1250 -91 836 529 
Q 422 1150 422 2328 
Q 422 3509 836 4129 
Q 1250 4750 2034 4750 
z
" transform="scale(0.015625)"/>
        <path id="DejaVuSans-2e" d="M 684 794 
L 1344 794 
L 1344 0 
L 684 0 
L 684 794 
z
" transform="scale(0.015625)"/>
       </defs>
       <use xlink:href="#DejaVuSans-30"/>
       <use xlink:href="#DejaVuSans-2e" x="63.623047"/>
       <use xlink:href="#DejaVuSans-30" x="95.410156"/>
      </g>
     </g>
    </g>
    <g id="xtick_2">
     <g id="line2d_2">
      <path d="M 178.772727 384.48 
L 178.772727 51.84 
" clip-path="url(#p8ac731daca)" style="fill: none; stroke: #cccccc; stroke-width: 0.8; stroke-linecap: round"/>
     </g>
     <g id="text_2">
      <!-- 2.5 -->
      <g style="fill: #262626" transform="translate(170.821165 399.078438) scale(0.1 -0.1)">
       <defs>
        <path id="DejaVuSans-32" d="M 1228 531 
L 3431 531 
L 3431 0 
L 469 0 
L 469 531 
Q 828 903 1448 1529 
Q 2069 2156 2228 2338 
Q 2531 2678 2651 2914 
Q 2772 3150 2772 3378 
Q 2772 3750 2511 3984 
Q 2250 4219 1831 4219 
Q 1534 4219 1204 4116 
Q 875 4013 500 3803 
L 500 4441 
Q 881 4594 1212 4672 
Q 1544 4750 1819 4750 
Q 2544 4750 2975 4387 
Q 3406 4025 3406 3419 
Q 3406 3131 3298 2873 
Q 3191 2616 2906 2266 
Q 2828 2175 2409 1742 
Q 1991 1309 1228 531 
z
" transform="scale(0.015625)"/>
        <path id="DejaVuSans-35" d="M 691 4666 
L 3169 4666 
L 3169 4134 
L 1269 4134 
L 1269 2991 
Q 1406 3038 1543 3061 
Q 1681 3084 1819 3084 
Q 2600 3084 3056 2656 
Q 3513 2228 3513 1497 
Q 3513 744 3044 326 
Q 2575 -91 1722 -91 
Q 1428 -91 1123 -41 
Q 819 9 494 109 
L 494 744 
Q 775 591 1075 516 
Q 1375 441 1709 441 
Q 2250 441 2565 725 
Q 2881 1009 2881 1497 
Q 2881 1984 2565 2268 
Q 2250 2553 1709 2553 
Q 1456 2553 1204 2497 
Q 953 2441 691 2322 
L 691 4666 
z
" transform="scale(0.015625)"/>
       </defs>
       <use xlink:href="#DejaVuSans-32"/>
       <use xlink:href="#DejaVuSans-2e" x="63.623047"/>
       <use xlink:href="#DejaVuSans-35" x="95.410156"/>
      </g>
     </g>
    </g>
    <g id="xtick_3">
     <g id="line2d_3">
      <path d="M 242.181818 384.48 
L 242.181818 51.84 
" clip-path="url(#p8ac731daca)" style="fill: none; stroke: #cccccc; stroke-width: 0.8; stroke-linecap: round"/>
     </g>
     <g id="text_3">
      <!-- 5.0 -->
      <g style="fill: #262626" transform="translate(234.230256 399.078438) scale(0.1 -0.1)">
       <use xlink:href="#DejaVuSans-35"/>
       <use xlink:href="#DejaVuSans-2e" x="63.623047"/>
       <use xlink:href="#DejaVuSans-30" x="95.410156"/>
      </g>
     </g>
    </g>
    <g id="xtick_4">
     <g id="line2d_4">
      <path d="M 305.590909 384.48 
L 305.590909 51.84 
" clip-path="url(#p8ac731daca)" style="fill: none; stroke: #cccccc; stroke-width: 0.8; stroke-linecap: round"/>
     </g>
     <g id="text_4">
      <!-- 7.5 -->
      <g style="fill: #262626" transform="translate(297.639347 399.078438) scale(0.1 -0.1)">
       <defs>
        <path id="DejaVuSans-37" d="M 525 4666 
L 3525 4666 
L 3525 4397 
L 1831 0 
L 1172 0 
L 2766 4134 
L 525 4134 
L 525 4666 
z
" transform="scale(0.015625)"/>
       </defs>
       <use xlink:href="#DejaVuSans-37"/>
       <use xlink:href="#DejaVuSans-2e" x="63.623047"/>
       <use xlink:href="#DejaVuSans-35" x="95.410156"/>
      </g>
     </g>
    </g>
    <g id="xtick_5">
     <g id="line2d_5">
      <path d="M 369 384.48 
L 369 51.84 
" clip-path="url(#p8ac731daca)" style="fill: none; stroke: #cccccc; stroke-width: 0.8; stroke-linecap: round"/>
     </g>
     <g id="text_5">
      <!-- 10.0 -->
      <g style="fill: #262626" transform="translate(357.867188 399.078438) scale(0.1 -0.1)">
       <defs>
        <path id="DejaVuSans-31" d="M 794 531 
L 1825 531 
L 1825 4091 
L 703 3866 
L 703 4441 
L 1819 4666 
L 2450 4666 
L 2450 531 
L 3481 531 
L 3481 0 
L 794 0 
L 794 531 
z
" transform="scale(0.015625)"/>
       </defs>
       <use xlink:href="#DejaVuSans-31"/>
       <use xlink:href="#DejaVuSans-30" x="63.623047"/>
       <use xlink:href="#DejaVuSans-2e" x="127.246094"/>
       <use xlink:href="#DejaVuSans-30" x="159.033203"/>
      </g>
     </g>
    </g>
    <g id="xtick_6">
     <g id="line2d_6">
      <path d="M 432.409091 384.48 
L 432.409091 51.84 
" clip-path="url(#p8ac731daca)" style="fill: none; stroke: #cccccc; stroke-width: 0.8; stroke-linecap: round"/>
     </g>
     <g id="text_6">
      <!-- 12.5 -->
      <g style="fill: #262626" transform="translate(421.276278 399.078438) scale(0.1 -0.1)">
       <use xlink:href="#DejaVuSans-31"/>
       <use xlink:href="#DejaVuSans-32" x="63.623047"/>
       <use xlink:href="#DejaVuSans-2e" x="127.246094"/>
       <use xlink:href="#DejaVuSans-35" x="159.033203"/>
      </g>
     </g>
    </g>
    <g id="xtick_7">
     <g id="line2d_7">
      <path d="M 495.818182 384.48 
L 495.818182 51.84 
" clip-path="url(#p8ac731daca)" style="fill: none; stroke: #cccccc; stroke-width: 0.8; stroke-linecap: round"/>
     </g>
     <g id="text_7">
      <!-- 15.0 -->
      <g style="fill: #262626" transform="translate(484.685369 399.078438) scale(0.1 -0.1)">
       <use xlink:href="#DejaVuSans-31"/>
       <use xlink:href="#DejaVuSans-35" x="63.623047"/>
       <use xlink:href="#DejaVuSans-2e" x="127.246094"/>
       <use xlink:href="#DejaVuSans-30" x="159.033203"/>
      </g>
     </g>
    </g>
    <g id="xtick_8">
     <g id="line2d_8">
      <path d="M 559.227273 384.48 
L 559.227273 51.84 
" clip-path="url(#p8ac731daca)" style="fill: none; stroke: #cccccc; stroke-width: 0.8; stroke-linecap: round"/>
     </g>
     <g id="text_8">
      <!-- 17.5 -->
      <g style="fill: #262626" transform="translate(548.09446 399.078438) scale(0.1 -0.1)">
       <use xlink:href="#DejaVuSans-31"/>
       <use xlink:href="#DejaVuSans-37" x="63.623047"/>
       <use xlink:href="#DejaVuSans-2e" x="127.246094"/>
       <use xlink:href="#DejaVuSans-35" x="159.033203"/>
      </g>
     </g>
    </g>
    <g id="xtick_9">
     <g id="line2d_9">
      <path d="M 622.636364 384.48 
L 622.636364 51.84 
" clip-path="url(#p8ac731daca)" style="fill: none; stroke: #cccccc; stroke-width: 0.8; stroke-linecap: round"/>
     </g>
     <g id="text_9">
      <!-- 20.0 -->
      <g style="fill: #262626" transform="translate(611.503551 399.078438) scale(0.1 -0.1)">
       <use xlink:href="#DejaVuSans-32"/>
       <use xlink:href="#DejaVuSans-30" x="63.623047"/>
       <use xlink:href="#DejaVuSans-2e" x="127.246094"/>
       <use xlink:href="#DejaVuSans-30" x="159.033203"/>
      </g>
     </g>
    </g>
    <g id="text_10">
     <!-- Evaluation Index -->
     <g style="fill: #262626" transform="translate(327.2625 412.756563) scale(0.1 -0.1)">
      <defs>
       <path id="DejaVuSans-45" d="M 628 4666 
L 3578 4666 
L 3578 4134 
L 1259 4134 
L 1259 2753 
L 3481 2753 
L 3481 2222 
L 1259 2222 
L 1259 531 
L 3634 531 
L 3634 0 
L 628 0 
L 628 4666 
z
" transform="scale(0.015625)"/>
       <path id="DejaVuSans-76" d="M 191 3500 
L 800 3500 
L 1894 563 
L 2988 3500 
L 3597 3500 
L 2284 0 
L 1503 0 
L 191 3500 
z
" transform="scale(0.015625)"/>
       <path id="DejaVuSans-61" d="M 2194 1759 
Q 1497 1759 1228 1600 
Q 959 1441 959 1056 
Q 959 750 1161 570 
Q 1363 391 1709 391 
Q 2188 391 2477 730 
Q 2766 1069 2766 1631 
L 2766 1759 
L 2194 1759 
z
M 3341 1997 
L 3341 0 
L 2766 0 
L 2766 531 
Q 2569 213 2275 61 
Q 1981 -91 1556 -91 
Q 1019 -91 701 211 
Q 384 513 384 1019 
Q 384 1609 779 1909 
Q 1175 2209 1959 2209 
L 2766 2209 
L 2766 2266 
Q 2766 2663 2505 2880 
Q 2244 3097 1772 3097 
Q 1472 3097 1187 3025 
Q 903 2953 641 2809 
L 641 3341 
Q 956 3463 1253 3523 
Q 1550 3584 1831 3584 
Q 2591 3584 2966 3190 
Q 3341 2797 3341 1997 
z
" transform="scale(0.015625)"/>
       <path id="DejaVuSans-6c" d="M 603 4863 
L 1178 4863 
L 1178 0 
L 603 0 
L 603 4863 
z
" transform="scale(0.015625)"/>
       <path id="DejaVuSans-75" d="M 544 1381 
L 544 3500 
L 1119 3500 
L 1119 1403 
Q 1119 906 1312 657 
Q 1506 409 1894 409 
Q 2359 409 2629 706 
Q 2900 1003 2900 1516 
L 2900 3500 
L 3475 3500 
L 3475 0 
L 2900 0 
L 2900 538 
Q 2691 219 2414 64 
Q 2138 -91 1772 -91 
Q 1169 -91 856 284 
Q 544 659 544 1381 
z
M 1991 3584 
L 1991 3584 
z
" transform="scale(0.015625)"/>
       <path id="DejaVuSans-74" d="M 1172 4494 
L 1172 3500 
L 2356 3500 
L 2356 3053 
L 1172 3053 
L 1172 1153 
Q 1172 725 1289 603 
Q 1406 481 1766 481 
L 2356 481 
L 2356 0 
L 1766 0 
Q 1100 0 847 248 
Q 594 497 594 1153 
L 594 3053 
L 172 3053 
L 172 3500 
L 594 3500 
L 594 4494 
L 1172 4494 
z
" transform="scale(0.015625)"/>
       <path id="DejaVuSans-69" d="M 603 3500 
L 1178 3500 
L 1178 0 
L 603 0 
L 603 3500 
z
M 603 4863 
L 1178 4863 
L 1178 4134 
L 603 4134 
L 603 4863 
z
" transform="scale(0.015625)"/>
       <path id="DejaVuSans-6f" d="M 1959 3097 
Q 1497 3097 1228 2736 
Q 959 2375 959 1747 
Q 959 1119 1226 758 
Q 1494 397 1959 397 
Q 2419 397 2687 759 
Q 2956 1122 2956 1747 
Q 2956 2369 2687 2733 
Q 2419 3097 1959 3097 
z
M 1959 3584 
Q 2709 3584 3137 3096 
Q 3566 2609 3566 1747 
Q 3566 888 3137 398 
Q 2709 -91 1959 -91 
Q 1206 -91 779 398 
Q 353 888 353 1747 
Q 353 2609 779 3096 
Q 1206 3584 1959 3584 
z
" transform="scale(0.015625)"/>
       <path id="DejaVuSans-6e" d="M 3513 2113 
L 3513 0 
L 2938 0 
L 2938 2094 
Q 2938 2591 2744 2837 
Q 2550 3084 2163 3084 
Q 1697 3084 1428 2787 
Q 1159 2491 1159 1978 
L 1159 0 
L 581 0 
L 581 3500 
L 1159 3500 
L 1159 2956 
Q 1366 3272 1645 3428 
Q 1925 3584 2291 3584 
Q 2894 3584 3203 3211 
Q 3513 2838 3513 2113 
z
" transform="scale(0.015625)"/>
       <path id="DejaVuSans-20" transform="scale(0.015625)"/>
       <path id="DejaVuSans-49" d="M 628 4666 
L 1259 4666 
L 1259 0 
L 628 0 
L 628 4666 
z
" transform="scale(0.015625)"/>
       <path id="DejaVuSans-64" d="M 2906 2969 
L 2906 4863 
L 3481 4863 
L 3481 0 
L 2906 0 
L 2906 525 
Q 2725 213 2448 61 
Q 2172 -91 1784 -91 
Q 1150 -91 751 415 
Q 353 922 353 1747 
Q 353 2572 751 3078 
Q 1150 3584 1784 3584 
Q 2172 3584 2448 3432 
Q 2725 3281 2906 2969 
z
M 947 1747 
Q 947 1113 1208 752 
Q 1469 391 1925 391 
Q 2381 391 2643 752 
Q 2906 1113 2906 1747 
Q 2906 2381 2643 2742 
Q 2381 3103 1925 3103 
Q 1469 3103 1208 2742 
Q 947 2381 947 1747 
z
" transform="scale(0.015625)"/>
       <path id="DejaVuSans-65" d="M 3597 1894 
L 3597 1613 
L 953 1613 
Q 991 1019 1311 708 
Q 1631 397 2203 397 
Q 2534 397 2845 478 
Q 3156 559 3463 722 
L 3463 178 
Q 3153 47 2828 -22 
Q 2503 -91 2169 -91 
Q 1331 -91 842 396 
Q 353 884 353 1716 
Q 353 2575 817 3079 
Q 1281 3584 2069 3584 
Q 2775 3584 3186 3129 
Q 3597 2675 3597 1894 
z
M 3022 2063 
Q 3016 2534 2758 2815 
Q 2500 3097 2075 3097 
Q 1594 3097 1305 2825 
Q 1016 2553 972 2059 
L 3022 2063 
z
" transform="scale(0.015625)"/>
       <path id="DejaVuSans-78" d="M 3513 3500 
L 2247 1797 
L 3578 0 
L 2900 0 
L 1881 1375 
L 863 0 
L 184 0 
L 1544 1831 
L 300 3500 
L 978 3500 
L 1906 2253 
L 2834 3500 
L 3513 3500 
z
" transform="scale(0.015625)"/>
      </defs>
      <use xlink:href="#DejaVuSans-45"/>
      <use xlink:href="#DejaVuSans-76" x="63.183594"/>
      <use xlink:href="#DejaVuSans-61" x="122.363281"/>
      <use xlink:href="#DejaVuSans-6c" x="183.642578"/>
      <use xlink:href="#DejaVuSans-75" x="211.425781"/>
      <use xlink:href="#DejaVuSans-61" x="274.804688"/>
      <use xlink:href="#DejaVuSans-74" x="336.083984"/>
      <use xlink:href="#DejaVuSans-69" x="375.292969"/>
      <use xlink:href="#DejaVuSans-6f" x="403.076172"/>
      <use xlink:href="#DejaVuSans-6e" x="464.257812"/>
      <use xlink:href="#DejaVuSans-20" x="527.636719"/>
      <use xlink:href="#DejaVuSans-49" x="559.423828"/>
      <use xlink:href="#DejaVuSans-6e" x="588.916016"/>
      <use xlink:href="#DejaVuSans-64" x="652.294922"/>
      <use xlink:href="#DejaVuSans-65" x="715.771484"/>
      <use xlink:href="#DejaVuSans-78" x="775.544922"/>
     </g>
    </g>
   </g>
   <g id="matplotlib.axis_2">
    <g id="ytick_1">
     <g id="line2d_10">
      <path d="M 90 348.156261 
L 648 348.156261 
" clip-path="url(#p8ac731daca)" style="fill: none; stroke: #cccccc; stroke-width: 0.8; stroke-linecap: round"/>
     </g>
     <g id="text_11">
      <!-- −350 -->
      <g style="fill: #262626" transform="translate(55.532812 351.95548) scale(0.1 -0.1)">
       <defs>
        <path id="DejaVuSans-2212" d="M 678 2272 
L 4684 2272 
L 4684 1741 
L 678 1741 
L 678 2272 
z
" transform="scale(0.015625)"/>
        <path id="DejaVuSans-33" d="M 2597 2516 
Q 3050 2419 3304 2112 
Q 3559 1806 3559 1356 
Q 3559 666 3084 287 
Q 2609 -91 1734 -91 
Q 1441 -91 1130 -33 
Q 819 25 488 141 
L 488 750 
Q 750 597 1062 519 
Q 1375 441 1716 441 
Q 2309 441 2620 675 
Q 2931 909 2931 1356 
Q 2931 1769 2642 2001 
Q 2353 2234 1838 2234 
L 1294 2234 
L 1294 2753 
L 1863 2753 
Q 2328 2753 2575 2939 
Q 2822 3125 2822 3475 
Q 2822 3834 2567 4026 
Q 2313 4219 1838 4219 
Q 1578 4219 1281 4162 
Q 984 4106 628 3988 
L 628 4550 
Q 988 4650 1302 4700 
Q 1616 4750 1894 4750 
Q 2613 4750 3031 4423 
Q 3450 4097 3450 3541 
Q 3450 3153 3228 2886 
Q 3006 2619 2597 2516 
z
" transform="scale(0.015625)"/>
       </defs>
       <use xlink:href="#DejaVuSans-2212"/>
       <use xlink:href="#DejaVuSans-33" x="83.789062"/>
       <use xlink:href="#DejaVuSans-35" x="147.412109"/>
       <use xlink:href="#DejaVuSans-30" x="211.035156"/>
      </g>
     </g>
    </g>
    <g id="ytick_2">
     <g id="line2d_11">
      <path d="M 90 308.347392 
L 648 308.347392 
" clip-path="url(#p8ac731daca)" style="fill: none; stroke: #cccccc; stroke-width: 0.8; stroke-linecap: round"/>
     </g>
     <g id="text_12">
      <!-- −300 -->
      <g style="fill: #262626" transform="translate(55.532812 312.146611) scale(0.1 -0.1)">
       <use xlink:href="#DejaVuSans-2212"/>
       <use xlink:href="#DejaVuSans-33" x="83.789062"/>
       <use xlink:href="#DejaVuSans-30" x="147.412109"/>
       <use xlink:href="#DejaVuSans-30" x="211.035156"/>
      </g>
     </g>
    </g>
    <g id="ytick_3">
     <g id="line2d_12">
      <path d="M 90 268.538522 
L 648 268.538522 
" clip-path="url(#p8ac731daca)" style="fill: none; stroke: #cccccc; stroke-width: 0.8; stroke-linecap: round"/>
     </g>
     <g id="text_13">
      <!-- −250 -->
      <g style="fill: #262626" transform="translate(55.532812 272.337741) scale(0.1 -0.1)">
       <use xlink:href="#DejaVuSans-2212"/>
       <use xlink:href="#DejaVuSans-32" x="83.789062"/>
       <use xlink:href="#DejaVuSans-35" x="147.412109"/>
       <use xlink:href="#DejaVuSans-30" x="211.035156"/>
      </g>
     </g>
    </g>
    <g id="ytick_4">
     <g id="line2d_13">
      <path d="M 90 228.729653 
L 648 228.729653 
" clip-path="url(#p8ac731daca)" style="fill: none; stroke: #cccccc; stroke-width: 0.8; stroke-linecap: round"/>
     </g>
     <g id="text_14">
      <!-- −200 -->
      <g style="fill: #262626" transform="translate(55.532812 232.528872) scale(0.1 -0.1)">
       <use xlink:href="#DejaVuSans-2212"/>
       <use xlink:href="#DejaVuSans-32" x="83.789062"/>
       <use xlink:href="#DejaVuSans-30" x="147.412109"/>
       <use xlink:href="#DejaVuSans-30" x="211.035156"/>
      </g>
     </g>
    </g>
    <g id="ytick_5">
     <g id="line2d_14">
      <path d="M 90 188.920783 
L 648 188.920783 
" clip-path="url(#p8ac731daca)" style="fill: none; stroke: #cccccc; stroke-width: 0.8; stroke-linecap: round"/>
     </g>
     <g id="text_15">
      <!-- −150 -->
      <g style="fill: #262626" transform="translate(55.532812 192.720002) scale(0.1 -0.1)">
       <use xlink:href="#DejaVuSans-2212"/>
       <use xlink:href="#DejaVuSans-31" x="83.789062"/>
       <use xlink:href="#DejaVuSans-35" x="147.412109"/>
       <use xlink:href="#DejaVuSans-30" x="211.035156"/>
      </g>
     </g>
    </g>
    <g id="ytick_6">
     <g id="line2d_15">
      <path d="M 90 149.111914 
L 648 149.111914 
" clip-path="url(#p8ac731daca)" style="fill: none; stroke: #cccccc; stroke-width: 0.8; stroke-linecap: round"/>
     </g>
     <g id="text_16">
      <!-- −100 -->
      <g style="fill: #262626" transform="translate(55.532812 152.911133) scale(0.1 -0.1)">
       <use xlink:href="#DejaVuSans-2212"/>
       <use xlink:href="#DejaVuSans-31" x="83.789062"/>
       <use xlink:href="#DejaVuSans-30" x="147.412109"/>
       <use xlink:href="#DejaVuSans-30" x="211.035156"/>
      </g>
     </g>
    </g>
    <g id="ytick_7">
     <g id="line2d_16">
      <path d="M 90 109.303044 
L 648 109.303044 
" clip-path="url(#p8ac731daca)" style="fill: none; stroke: #cccccc; stroke-width: 0.8; stroke-linecap: round"/>
     </g>
     <g id="text_17">
      <!-- −50 -->
      <g style="fill: #262626" transform="translate(61.895313 113.102263) scale(0.1 -0.1)">
       <use xlink:href="#DejaVuSans-2212"/>
       <use xlink:href="#DejaVuSans-35" x="83.789062"/>
       <use xlink:href="#DejaVuSans-30" x="147.412109"/>
      </g>
     </g>
    </g>
    <g id="ytick_8">
     <g id="line2d_17">
      <path d="M 90 69.494175 
L 648 69.494175 
" clip-path="url(#p8ac731daca)" style="fill: none; stroke: #cccccc; stroke-width: 0.8; stroke-linecap: round"/>
     </g>
     <g id="text_18">
      <!-- 0 -->
      <g style="fill: #262626" transform="translate(76.6375 73.293394) scale(0.1 -0.1)">
       <use xlink:href="#DejaVuSans-30"/>
      </g>
     </g>
    </g>
    <g id="text_19">
     <!-- Returns -->
     <g style="fill: #262626" transform="translate(49.453125 237.356094) rotate(-90) scale(0.1 -0.1)">
      <defs>
       <path id="DejaVuSans-52" d="M 2841 2188 
Q 3044 2119 3236 1894 
Q 3428 1669 3622 1275 
L 4263 0 
L 3584 0 
L 2988 1197 
Q 2756 1666 2539 1819 
Q 2322 1972 1947 1972 
L 1259 1972 
L 1259 0 
L 628 0 
L 628 4666 
L 2053 4666 
Q 2853 4666 3247 4331 
Q 3641 3997 3641 3322 
Q 3641 2881 3436 2590 
Q 3231 2300 2841 2188 
z
M 1259 4147 
L 1259 2491 
L 2053 2491 
Q 2509 2491 2742 2702 
Q 2975 2913 2975 3322 
Q 2975 3731 2742 3939 
Q 2509 4147 2053 4147 
L 1259 4147 
z
" transform="scale(0.015625)"/>
       <path id="DejaVuSans-72" d="M 2631 2963 
Q 2534 3019 2420 3045 
Q 2306 3072 2169 3072 
Q 1681 3072 1420 2755 
Q 1159 2438 1159 1844 
L 1159 0 
L 581 0 
L 581 3500 
L 1159 3500 
L 1159 2956 
Q 1341 3275 1631 3429 
Q 1922 3584 2338 3584 
Q 2397 3584 2469 3576 
Q 2541 3569 2628 3553 
L 2631 2963 
z
" transform="scale(0.015625)"/>
       <path id="DejaVuSans-73" d="M 2834 3397 
L 2834 2853 
Q 2591 2978 2328 3040 
Q 2066 3103 1784 3103 
Q 1356 3103 1142 2972 
Q 928 2841 928 2578 
Q 928 2378 1081 2264 
Q 1234 2150 1697 2047 
L 1894 2003 
Q 2506 1872 2764 1633 
Q 3022 1394 3022 966 
Q 3022 478 2636 193 
Q 2250 -91 1575 -91 
Q 1294 -91 989 -36 
Q 684 19 347 128 
L 347 722 
Q 666 556 975 473 
Q 1284 391 1588 391 
Q 1994 391 2212 530 
Q 2431 669 2431 922 
Q 2431 1156 2273 1281 
Q 2116 1406 1581 1522 
L 1381 1569 
Q 847 1681 609 1914 
Q 372 2147 372 2553 
Q 372 3047 722 3315 
Q 1072 3584 1716 3584 
Q 2034 3584 2315 3537 
Q 2597 3491 2834 3397 
z
" transform="scale(0.015625)"/>
      </defs>
      <use xlink:href="#DejaVuSans-52"/>
      <use xlink:href="#DejaVuSans-65" x="64.982422"/>
      <use xlink:href="#DejaVuSans-74" x="126.505859"/>
      <use xlink:href="#DejaVuSans-75" x="165.714844"/>
      <use xlink:href="#DejaVuSans-72" x="229.09375"/>
      <use xlink:href="#DejaVuSans-6e" x="268.457031"/>
      <use xlink:href="#DejaVuSans-73" x="331.835938"/>
     </g>
    </g>
   </g>
   <g id="PolyCollection_1">
    <defs>
     <path id="m212f1e86e5" d="M 115.363636 -287.495276 
L 115.363636 -62.64 
L 140.727273 -362.447035 
L 166.090909 -362.447035 
L 191.454545 -362.447035 
L 216.818182 -362.447035 
L 242.181818 -362.447035 
L 267.545455 -362.447035 
L 292.909091 -362.447035 
L 318.272727 -362.447035 
L 343.636364 -362.447035 
L 369 -362.447035 
L 394.363636 -362.447035 
L 419.727273 -362.447035 
L 445.090909 -362.447035 
L 470.454545 -362.447035 
L 495.818182 -362.447035 
L 521.181818 -362.447035 
L 546.545455 -362.447035 
L 571.909091 -362.447035 
L 597.272727 -362.447035 
L 622.636364 -362.447035 
L 622.636364 -364.72344 
L 622.636364 -364.72344 
L 597.272727 -364.72344 
L 571.909091 -364.72344 
L 546.545455 -364.72344 
L 521.181818 -364.72344 
L 495.818182 -364.72344 
L 470.454545 -364.72344 
L 445.090909 -364.72344 
L 419.727273 -364.72344 
L 394.363636 -364.72344 
L 369 -364.72344 
L 343.636364 -364.72344 
L 318.272727 -364.700421 
L 292.909091 -364.700421 
L 267.545455 -362.447035 
L 242.181818 -362.447035 
L 216.818182 -362.447035 
L 191.454545 -362.447035 
L 166.090909 -362.447035 
L 140.727273 -362.447035 
L 115.363636 -287.495276 
z
" style="stroke: #edd1cb; stroke-opacity: 0.2"/>
    </defs>
    <g clip-path="url(#p8ac731daca)">
     <use xlink:href="#m212f1e86e5" x="0" y="432" style="fill: #edd1cb; fill-opacity: 0.2; stroke: #edd1cb; stroke-opacity: 0.2"/>
    </g>
   </g>
   <g id="PolyCollection_2">
    <defs>
     <path id="md7f3cc6b66" d="M 115.363636 -287.495276 
L 115.363636 -62.64 
L 140.727273 -362.447035 
L 166.090909 -362.447035 
L 191.454545 -362.447035 
L 216.818182 -362.447035 
L 242.181818 -362.447035 
L 267.545455 -362.447035 
L 292.909091 -362.447035 
L 318.272727 -362.447035 
L 343.636364 -362.447035 
L 369 -362.447035 
L 394.363636 -362.447035 
L 419.727273 -362.447035 
L 445.090909 -362.447035 
L 470.454545 -362.447035 
L 495.818182 -362.447035 
L 521.181818 -362.447035 
L 546.545455 -362.447035 
L 571.909091 -362.447035 
L 597.272727 -362.447035 
L 622.636364 -362.447035 
L 622.636364 -362.447035 
L 622.636364 -362.447035 
L 597.272727 -362.447035 
L 571.909091 -362.447035 
L 546.545455 -362.447035 
L 521.181818 -362.447035 
L 495.818182 -362.447035 
L 470.454545 -362.447035 
L 445.090909 -362.447035 
L 419.727273 -362.447035 
L 394.363636 -362.447035 
L 369 -362.447035 
L 343.636364 -362.447035 
L 318.272727 -362.447035 
L 292.909091 -362.447035 
L 267.545455 -362.447035 
L 242.181818 -362.447035 
L 216.818182 -362.447035 
L 191.454545 -362.447035 
L 166.090909 -362.447035 
L 140.727273 -362.447035 
L 115.363636 -287.495276 
z
" style="stroke: #e4b8b8; stroke-opacity: 0.2"/>
    </defs>
    <g clip-path="url(#p8ac731daca)">
     <use xlink:href="#md7f3cc6b66" x="0" y="432" style="fill: #e4b8b8; fill-opacity: 0.2; stroke: #e4b8b8; stroke-opacity: 0.2"/>
    </g>
   </g>
   <g id="PolyCollection_3">
    <defs>
     <path id="me62eb062eb" d="M 115.363636 -362.447035 
L 115.363636 -71.911064 
L 140.727273 -362.447035 
L 166.090909 -362.447035 
L 191.454545 -362.447035 
L 216.818182 -362.447035 
L 242.181818 -362.447035 
L 267.545455 -362.447035 
L 292.909091 -362.447035 
L 318.272727 -362.447035 
L 343.636364 -362.447035 
L 369 -362.447035 
L 394.363636 -362.447035 
L 419.727273 -362.447035 
L 445.090909 -362.447035 
L 470.454545 -362.447035 
L 495.818182 -362.447035 
L 521.181818 -362.447035 
L 546.545455 -362.447035 
L 571.909091 -362.447035 
L 597.272727 -362.447035 
L 622.636364 -362.447035 
L 622.636364 -364.655072 
L 622.636364 -364.655072 
L 597.272727 -364.655072 
L 571.909091 -364.655072 
L 546.545455 -364.655072 
L 521.181818 -364.655072 
L 495.818182 -364.655072 
L 470.454545 -364.655072 
L 445.090909 -362.447035 
L 419.727273 -362.447035 
L 394.363636 -362.447035 
L 369 -362.447035 
L 343.636364 -362.447035 
L 318.272727 -362.447035 
L 292.909091 -362.447035 
L 267.545455 -362.447035 
L 242.181818 -362.447035 
L 216.818182 -362.447035 
L 191.454545 -362.447035 
L 166.090909 -362.447035 
L 140.727273 -362.447035 
L 115.363636 -362.447035 
z
" style="stroke: #d8a0aa; stroke-opacity: 0.2"/>
    </defs>
    <g clip-path="url(#p8ac731daca)">
     <use xlink:href="#me62eb062eb" x="0" y="432" style="fill: #d8a0aa; fill-opacity: 0.2; stroke: #d8a0aa; stroke-opacity: 0.2"/>
    </g>
   </g>
   <g id="PolyCollection_4">
    <defs>
     <path id="m0681a1b48f" d="M 115.363636 -324.771132 
L 115.363636 -108.667845 
L 140.727273 -362.447035 
L 166.090909 -362.447035 
L 191.454545 -362.447035 
L 216.818182 -362.447035 
L 242.181818 -362.447035 
L 267.545455 -362.447035 
L 292.909091 -362.447035 
L 318.272727 -362.447035 
L 343.636364 -362.447035 
L 369 -362.447035 
L 394.363636 -362.447035 
L 419.727273 -362.447035 
L 445.090909 -362.447035 
L 470.454545 -362.447035 
L 495.818182 -362.447035 
L 521.181818 -362.447035 
L 546.545455 -362.447035 
L 571.909091 -362.447035 
L 597.272727 -362.447035 
L 622.636364 -362.447035 
L 622.636364 -364.72344 
L 622.636364 -364.72344 
L 597.272727 -364.72344 
L 571.909091 -364.72344 
L 546.545455 -364.72344 
L 521.181818 -364.72344 
L 495.818182 -364.72344 
L 470.454545 -364.72344 
L 445.090909 -364.72344 
L 419.727273 -362.447035 
L 394.363636 -362.447035 
L 369 -362.447035 
L 343.636364 -362.447035 
L 318.272727 -362.447035 
L 292.909091 -362.447035 
L 267.545455 -362.447035 
L 242.181818 -362.447035 
L 216.818182 -364.72344 
L 191.454545 -362.447035 
L 166.090909 -362.447035 
L 140.727273 -362.447035 
L 115.363636 -324.771132 
z
" style="stroke: #c8879e; stroke-opacity: 0.2"/>
    </defs>
    <g clip-path="url(#p8ac731daca)">
     <use xlink:href="#m0681a1b48f" x="0" y="432" style="fill: #c8879e; fill-opacity: 0.2; stroke: #c8879e; stroke-opacity: 0.2"/>
    </g>
   </g>
   <g id="PolyCollection_5">
    <defs>
     <path id="m029a6a7daa" d="M 115.363636 -362.447035 
L 115.363636 -137.591759 
L 140.727273 -362.447035 
L 166.090909 -362.447035 
L 191.454545 -362.447035 
L 216.818182 -362.447035 
L 242.181818 -362.447035 
L 267.545455 -362.447035 
L 292.909091 -362.447035 
L 318.272727 -362.447035 
L 343.636364 -362.447035 
L 369 -362.447035 
L 394.363636 -362.447035 
L 419.727273 -362.447035 
L 445.090909 -362.447035 
L 470.454545 -362.447035 
L 495.818182 -362.447035 
L 521.181818 -362.447035 
L 546.545455 -362.447035 
L 571.909091 -362.447035 
L 597.272727 -362.447035 
L 622.636364 -362.447035 
L 622.636364 -362.447035 
L 622.636364 -362.447035 
L 597.272727 -362.447035 
L 571.909091 -362.447035 
L 546.545455 -362.447035 
L 521.181818 -362.447035 
L 495.818182 -362.447035 
L 470.454545 -362.447035 
L 445.090909 -362.447035 
L 419.727273 -362.447035 
L 394.363636 -362.447035 
L 369 -362.447035 
L 343.636364 -362.447035 
L 318.272727 -362.447035 
L 292.909091 -362.447035 
L 267.545455 -362.447035 
L 242.181818 -362.447035 
L 216.818182 -362.447035 
L 191.454545 -362.447035 
L 166.090909 -362.447035 
L 140.727273 -362.447035 
L 115.363636 -362.447035 
z
" style="stroke: #b57294; stroke-opacity: 0.2"/>
    </defs>
    <g clip-path="url(#p8ac731daca)">
     <use xlink:href="#m029a6a7daa" x="0" y="432" style="fill: #b57294; fill-opacity: 0.2; stroke: #b57294; stroke-opacity: 0.2"/>
    </g>
   </g>
   <g id="PolyCollection_6">
    <defs>
     <path id="m256963d314" d="M 115.363636 -362.447035 
L 115.363636 -141.103086 
L 140.727273 -362.447035 
L 166.090909 -362.447035 
L 191.454545 -362.447035 
L 216.818182 -362.447035 
L 242.181818 -362.447035 
L 267.545455 -362.447035 
L 292.909091 -362.447035 
L 318.272727 -362.447035 
L 343.636364 -362.447035 
L 369 -362.447035 
L 394.363636 -362.447035 
L 419.727273 -362.447035 
L 445.090909 -362.447035 
L 470.454545 -362.447035 
L 495.818182 -362.447035 
L 521.181818 -362.447035 
L 546.545455 -362.447035 
L 571.909091 -362.447035 
L 597.272727 -362.447035 
L 622.636364 -362.447035 
L 622.636364 -364.700421 
L 622.636364 -364.700421 
L 597.272727 -364.700421 
L 571.909091 -364.700421 
L 546.545455 -364.700421 
L 521.181818 -364.700421 
L 495.818182 -364.700421 
L 470.454545 -362.447035 
L 445.090909 -364.72344 
L 419.727273 -364.72344 
L 394.363636 -362.447035 
L 369 -362.447035 
L 343.636364 -362.447035 
L 318.272727 -362.447035 
L 292.909091 -362.447035 
L 267.545455 -362.447035 
L 242.181818 -362.447035 
L 216.818182 -362.447035 
L 191.454545 -364.700421 
L 166.090909 -362.447035 
L 140.727273 -362.447035 
L 115.363636 -362.447035 
z
" style="stroke: #9d5d89; stroke-opacity: 0.2"/>
    </defs>
    <g clip-path="url(#p8ac731daca)">
     <use xlink:href="#m256963d314" x="0" y="432" style="fill: #9d5d89; fill-opacity: 0.2; stroke: #9d5d89; stroke-opacity: 0.2"/>
    </g>
   </g>
   <g id="PolyCollection_7">
    <defs>
     <path id="ma86255cf2a" d="M 115.363636 -287.495276 
L 115.363636 -62.64 
L 140.727273 -362.447035 
L 166.090909 -362.447035 
L 191.454545 -362.447035 
L 216.818182 -362.447035 
L 242.181818 -362.447035 
L 267.545455 -362.447035 
L 292.909091 -362.447035 
L 318.272727 -362.447035 
L 343.636364 -362.447035 
L 369 -362.447035 
L 394.363636 -362.447035 
L 419.727273 -362.447035 
L 445.090909 -362.447035 
L 470.454545 -362.447035 
L 495.818182 -362.447035 
L 521.181818 -362.447035 
L 546.545455 -362.447035 
L 571.909091 -362.447035 
L 597.272727 -362.447035 
L 622.636364 -362.447035 
L 622.636364 -362.447035 
L 622.636364 -362.447035 
L 597.272727 -363.353825 
L 571.909091 -363.353825 
L 546.545455 -362.447035 
L 521.181818 -362.447035 
L 495.818182 -362.447035 
L 470.454545 -362.447035 
L 445.090909 -362.447035 
L 419.727273 -362.447035 
L 394.363636 -362.447035 
L 369 -362.447035 
L 343.636364 -362.447035 
L 318.272727 -362.447035 
L 292.909091 -362.447035 
L 267.545455 -362.447035 
L 242.181818 -362.447035 
L 216.818182 -362.447035 
L 191.454545 -362.447035 
L 166.090909 -362.447035 
L 140.727273 -362.447035 
L 115.363636 -287.495276 
z
" style="stroke: #834c7d; stroke-opacity: 0.2"/>
    </defs>
    <g clip-path="url(#p8ac731daca)">
     <use xlink:href="#ma86255cf2a" x="0" y="432" style="fill: #834c7d; fill-opacity: 0.2; stroke: #834c7d; stroke-opacity: 0.2"/>
    </g>
   </g>
   <g id="PolyCollection_8">
    <defs>
     <path id="m8024068eac" d="M 115.363636 -92.897207 
L 115.363636 -64.980885 
L 140.727273 -362.447035 
L 166.090909 -362.447035 
L 191.454545 -362.447035 
L 216.818182 -362.447035 
L 242.181818 -362.447035 
L 267.545455 -362.447035 
L 292.909091 -362.447035 
L 318.272727 -362.447035 
L 343.636364 -362.447035 
L 369 -362.447035 
L 394.363636 -362.447035 
L 419.727273 -362.447035 
L 445.090909 -362.447035 
L 470.454545 -362.447035 
L 495.818182 -362.447035 
L 521.181818 -362.447035 
L 546.545455 -362.447035 
L 571.909091 -362.447035 
L 597.272727 -362.447035 
L 622.636364 -362.447035 
L 622.636364 -364.677633 
L 622.636364 -364.677633 
L 597.272727 -364.677633 
L 571.909091 -364.677633 
L 546.545455 -364.677633 
L 521.181818 -364.677633 
L 495.818182 -364.677633 
L 470.454545 -362.447035 
L 445.090909 -362.447035 
L 419.727273 -362.447035 
L 394.363636 -362.447035 
L 369 -362.447035 
L 343.636364 -362.447035 
L 318.272727 -362.447035 
L 292.909091 -362.447035 
L 267.545455 -362.447035 
L 242.181818 -362.447035 
L 216.818182 -364.700421 
L 191.454545 -362.447035 
L 166.090909 -362.447035 
L 140.727273 -362.447035 
L 115.363636 -92.897207 
z
" style="stroke: #653b6c; stroke-opacity: 0.2"/>
    </defs>
    <g clip-path="url(#p8ac731daca)">
     <use xlink:href="#m8024068eac" x="0" y="432" style="fill: #653b6c; fill-opacity: 0.2; stroke: #653b6c; stroke-opacity: 0.2"/>
    </g>
   </g>
   <g id="PolyCollection_9">
    <defs>
     <path id="mc4da583ec7" d="M 115.363636 -288.665719 
L 115.363636 -62.64 
L 140.727273 -362.447035 
L 166.090909 -362.447035 
L 191.454545 -362.447035 
L 216.818182 -362.447035 
L 242.181818 -362.447035 
L 267.545455 -362.447035 
L 292.909091 -362.447035 
L 318.272727 -362.447035 
L 343.636364 -362.447035 
L 369 -362.447035 
L 394.363636 -362.447035 
L 419.727273 -362.447035 
L 445.090909 -362.447035 
L 470.454545 -362.447035 
L 495.818182 -362.447035 
L 521.181818 -362.447035 
L 546.545455 -362.447035 
L 571.909091 -362.447035 
L 597.272727 -362.447035 
L 622.636364 -362.447035 
L 622.636364 -364.72344 
L 622.636364 -364.72344 
L 597.272727 -364.72344 
L 571.909091 -364.72344 
L 546.545455 -364.72344 
L 521.181818 -364.72344 
L 495.818182 -364.72344 
L 470.454545 -365.04 
L 445.090909 -363.396716 
L 419.727273 -363.396716 
L 394.363636 -362.447035 
L 369 -362.447035 
L 343.636364 -363.396716 
L 318.272727 -362.447035 
L 292.909091 -362.447035 
L 267.545455 -362.447035 
L 242.181818 -362.447035 
L 216.818182 -362.447035 
L 191.454545 -364.72344 
L 166.090909 -362.447035 
L 140.727273 -362.447035 
L 115.363636 -288.665719 
z
" style="stroke: #492d58; stroke-opacity: 0.2"/>
    </defs>
    <g clip-path="url(#p8ac731daca)">
     <use xlink:href="#mc4da583ec7" x="0" y="432" style="fill: #492d58; fill-opacity: 0.2; stroke: #492d58; stroke-opacity: 0.2"/>
    </g>
   </g>
   <g id="PolyCollection_10">
    <defs>
     <path id="maba811ce3c" d="M 115.363636 -281.689298 
L 115.363636 -67.369053 
L 140.727273 -362.447035 
L 166.090909 -362.447035 
L 191.454545 -362.447035 
L 216.818182 -362.447035 
L 242.181818 -362.447035 
L 267.545455 -362.447035 
L 292.909091 -362.447035 
L 318.272727 -362.447035 
L 343.636364 -362.447035 
L 369 -362.447035 
L 394.363636 -362.447035 
L 419.727273 -362.447035 
L 445.090909 -362.447035 
L 470.454545 -362.447035 
L 495.818182 -362.447035 
L 521.181818 -362.447035 
L 546.545455 -362.447035 
L 571.909091 -362.447035 
L 597.272727 -362.447035 
L 622.636364 -362.447035 
L 622.636364 -362.447035 
L 622.636364 -362.447035 
L 597.272727 -362.447035 
L 571.909091 -362.447035 
L 546.545455 -362.447035 
L 521.181818 -362.447035 
L 495.818182 -362.447035 
L 470.454545 -362.447035 
L 445.090909 -362.447035 
L 419.727273 -362.447035 
L 394.363636 -362.447035 
L 369 -362.447035 
L 343.636364 -362.447035 
L 318.272727 -362.447035 
L 292.909091 -362.447035 
L 267.545455 -362.447035 
L 242.181818 -364.72344 
L 216.818182 -362.447035 
L 191.454545 -362.447035 
L 166.090909 -362.447035 
L 140.727273 -362.447035 
L 115.363636 -281.689298 
z
" style="stroke: #2d1e3e; stroke-opacity: 0.2"/>
    </defs>
    <g clip-path="url(#p8ac731daca)">
     <use xlink:href="#maba811ce3c" x="0" y="432" style="fill: #2d1e3e; fill-opacity: 0.2; stroke: #2d1e3e; stroke-opacity: 0.2"/>
    </g>
   </g>
   <g id="line2d_18">
    <path d="M 115.363636 290.954972 
L 140.727273 69.552965 
L 166.090909 69.552965 
L 191.454545 69.552965 
L 216.818182 69.552965 
L 242.181818 69.552965 
L 267.545455 69.552965 
L 292.909091 68.801836 
L 318.272727 68.801836 
L 343.636364 68.794163 
L 369 68.794163 
L 394.363636 68.794163 
L 419.727273 68.794163 
L 445.090909 68.794163 
L 470.454545 68.794163 
L 495.818182 68.794163 
L 521.181818 68.794163 
L 546.545455 68.794163 
L 571.909091 68.794163 
L 597.272727 68.794163 
L 622.636364 68.794163 
" clip-path="url(#p8ac731daca)" style="fill: none; stroke: #edd1cb; stroke-width: 1.5; stroke-linecap: round"/>
    <defs>
     <path id="me012066be4" d="M 0 3 
C 0.795609 3 1.55874 2.683901 2.12132 2.12132 
C 2.683901 1.55874 3 0.795609 3 0 
C 3 -0.795609 2.683901 -1.55874 2.12132 -2.12132 
C 1.55874 -2.683901 0.795609 -3 0 -3 
C -0.795609 -3 -1.55874 -2.683901 -2.12132 -2.12132 
C -2.683901 -1.55874 -3 -0.795609 -3 0 
C -3 0.795609 -2.683901 1.55874 -2.12132 2.12132 
C -1.55874 2.683901 -0.795609 3 0 3 
z
" style="stroke: #ffffff; stroke-width: 0.75"/>
    </defs>
    <g clip-path="url(#p8ac731daca)">
     <use xlink:href="#me012066be4" x="115.363636" y="290.954972" style="fill: #edd1cb; stroke: #ffffff; stroke-width: 0.75"/>
     <use xlink:href="#me012066be4" x="140.727273" y="69.552965" style="fill: #edd1cb; stroke: #ffffff; stroke-width: 0.75"/>
     <use xlink:href="#me012066be4" x="166.090909" y="69.552965" style="fill: #edd1cb; stroke: #ffffff; stroke-width: 0.75"/>
     <use xlink:href="#me012066be4" x="191.454545" y="69.552965" style="fill: #edd1cb; stroke: #ffffff; stroke-width: 0.75"/>
     <use xlink:href="#me012066be4" x="216.818182" y="69.552965" style="fill: #edd1cb; stroke: #ffffff; stroke-width: 0.75"/>
     <use xlink:href="#me012066be4" x="242.181818" y="69.552965" style="fill: #edd1cb; stroke: #ffffff; stroke-width: 0.75"/>
     <use xlink:href="#me012066be4" x="267.545455" y="69.552965" style="fill: #edd1cb; stroke: #ffffff; stroke-width: 0.75"/>
     <use xlink:href="#me012066be4" x="292.909091" y="68.801836" style="fill: #edd1cb; stroke: #ffffff; stroke-width: 0.75"/>
     <use xlink:href="#me012066be4" x="318.272727" y="68.801836" style="fill: #edd1cb; stroke: #ffffff; stroke-width: 0.75"/>
     <use xlink:href="#me012066be4" x="343.636364" y="68.794163" style="fill: #edd1cb; stroke: #ffffff; stroke-width: 0.75"/>
     <use xlink:href="#me012066be4" x="369" y="68.794163" style="fill: #edd1cb; stroke: #ffffff; stroke-width: 0.75"/>
     <use xlink:href="#me012066be4" x="394.363636" y="68.794163" style="fill: #edd1cb; stroke: #ffffff; stroke-width: 0.75"/>
     <use xlink:href="#me012066be4" x="419.727273" y="68.794163" style="fill: #edd1cb; stroke: #ffffff; stroke-width: 0.75"/>
     <use xlink:href="#me012066be4" x="445.090909" y="68.794163" style="fill: #edd1cb; stroke: #ffffff; stroke-width: 0.75"/>
     <use xlink:href="#me012066be4" x="470.454545" y="68.794163" style="fill: #edd1cb; stroke: #ffffff; stroke-width: 0.75"/>
     <use xlink:href="#me012066be4" x="495.818182" y="68.794163" style="fill: #edd1cb; stroke: #ffffff; stroke-width: 0.75"/>
     <use xlink:href="#me012066be4" x="521.181818" y="68.794163" style="fill: #edd1cb; stroke: #ffffff; stroke-width: 0.75"/>
     <use xlink:href="#me012066be4" x="546.545455" y="68.794163" style="fill: #edd1cb; stroke: #ffffff; stroke-width: 0.75"/>
     <use xlink:href="#me012066be4" x="571.909091" y="68.794163" style="fill: #edd1cb; stroke: #ffffff; stroke-width: 0.75"/>
     <use xlink:href="#me012066be4" x="597.272727" y="68.794163" style="fill: #edd1cb; stroke: #ffffff; stroke-width: 0.75"/>
     <use xlink:href="#me012066be4" x="622.636364" y="68.794163" style="fill: #edd1cb; stroke: #ffffff; stroke-width: 0.75"/>
    </g>
   </g>
   <g id="line2d_19">
    <path d="M 115.363636 289.749651 
L 140.727273 69.552965 
L 166.090909 69.552965 
L 191.454545 69.552965 
L 216.818182 69.552965 
L 242.181818 69.552965 
L 267.545455 69.552965 
L 292.909091 69.552965 
L 318.272727 69.552965 
L 343.636364 69.552965 
L 369 69.552965 
L 394.363636 69.552965 
L 419.727273 69.552965 
L 445.090909 69.552965 
L 470.454545 69.552965 
L 495.818182 69.552965 
L 521.181818 69.552965 
L 546.545455 69.552965 
L 571.909091 69.552965 
L 597.272727 69.552965 
L 622.636364 69.552965 
" clip-path="url(#p8ac731daca)" style="fill: none; stroke: #e4b8b8; stroke-width: 1.5; stroke-linecap: round"/>
    <defs>
     <path id="m7e73ead8d6" d="M -1.5 3 
L 0 1.5 
L 1.5 3 
L 3 1.5 
L 1.5 0 
L 3 -1.5 
L 1.5 -3 
L 0 -1.5 
L -1.5 -3 
L -3 -1.5 
L -1.5 0 
L -3 1.5 
z
" style="stroke: #ffffff; stroke-width: 0.75; stroke-linejoin: miter"/>
    </defs>
    <g clip-path="url(#p8ac731daca)">
     <use xlink:href="#m7e73ead8d6" x="115.363636" y="289.749651" style="fill: #e4b8b8; stroke: #ffffff; stroke-width: 0.75; stroke-linejoin: miter"/>
     <use xlink:href="#m7e73ead8d6" x="140.727273" y="69.552965" style="fill: #e4b8b8; stroke: #ffffff; stroke-width: 0.75; stroke-linejoin: miter"/>
     <use xlink:href="#m7e73ead8d6" x="166.090909" y="69.552965" style="fill: #e4b8b8; stroke: #ffffff; stroke-width: 0.75; stroke-linejoin: miter"/>
     <use xlink:href="#m7e73ead8d6" x="191.454545" y="69.552965" style="fill: #e4b8b8; stroke: #ffffff; stroke-width: 0.75; stroke-linejoin: miter"/>
     <use xlink:href="#m7e73ead8d6" x="216.818182" y="69.552965" style="fill: #e4b8b8; stroke: #ffffff; stroke-width: 0.75; stroke-linejoin: miter"/>
     <use xlink:href="#m7e73ead8d6" x="242.181818" y="69.552965" style="fill: #e4b8b8; stroke: #ffffff; stroke-width: 0.75; stroke-linejoin: miter"/>
     <use xlink:href="#m7e73ead8d6" x="267.545455" y="69.552965" style="fill: #e4b8b8; stroke: #ffffff; stroke-width: 0.75; stroke-linejoin: miter"/>
     <use xlink:href="#m7e73ead8d6" x="292.909091" y="69.552965" style="fill: #e4b8b8; stroke: #ffffff; stroke-width: 0.75; stroke-linejoin: miter"/>
     <use xlink:href="#m7e73ead8d6" x="318.272727" y="69.552965" style="fill: #e4b8b8; stroke: #ffffff; stroke-width: 0.75; stroke-linejoin: miter"/>
     <use xlink:href="#m7e73ead8d6" x="343.636364" y="69.552965" style="fill: #e4b8b8; stroke: #ffffff; stroke-width: 0.75; stroke-linejoin: miter"/>
     <use xlink:href="#m7e73ead8d6" x="369" y="69.552965" style="fill: #e4b8b8; stroke: #ffffff; stroke-width: 0.75; stroke-linejoin: miter"/>
     <use xlink:href="#m7e73ead8d6" x="394.363636" y="69.552965" style="fill: #e4b8b8; stroke: #ffffff; stroke-width: 0.75; stroke-linejoin: miter"/>
     <use xlink:href="#m7e73ead8d6" x="419.727273" y="69.552965" style="fill: #e4b8b8; stroke: #ffffff; stroke-width: 0.75; stroke-linejoin: miter"/>
     <use xlink:href="#m7e73ead8d6" x="445.090909" y="69.552965" style="fill: #e4b8b8; stroke: #ffffff; stroke-width: 0.75; stroke-linejoin: miter"/>
     <use xlink:href="#m7e73ead8d6" x="470.454545" y="69.552965" style="fill: #e4b8b8; stroke: #ffffff; stroke-width: 0.75; stroke-linejoin: miter"/>
     <use xlink:href="#m7e73ead8d6" x="495.818182" y="69.552965" style="fill: #e4b8b8; stroke: #ffffff; stroke-width: 0.75; stroke-linejoin: miter"/>
     <use xlink:href="#m7e73ead8d6" x="521.181818" y="69.552965" style="fill: #e4b8b8; stroke: #ffffff; stroke-width: 0.75; stroke-linejoin: miter"/>
     <use xlink:href="#m7e73ead8d6" x="546.545455" y="69.552965" style="fill: #e4b8b8; stroke: #ffffff; stroke-width: 0.75; stroke-linejoin: miter"/>
     <use xlink:href="#m7e73ead8d6" x="571.909091" y="69.552965" style="fill: #e4b8b8; stroke: #ffffff; stroke-width: 0.75; stroke-linejoin: miter"/>
     <use xlink:href="#m7e73ead8d6" x="597.272727" y="69.552965" style="fill: #e4b8b8; stroke: #ffffff; stroke-width: 0.75; stroke-linejoin: miter"/>
     <use xlink:href="#m7e73ead8d6" x="622.636364" y="69.552965" style="fill: #e4b8b8; stroke: #ffffff; stroke-width: 0.75; stroke-linejoin: miter"/>
    </g>
   </g>
   <g id="line2d_20">
    <path d="M 115.363636 214.820951 
L 140.727273 69.552965 
L 166.090909 69.552965 
L 191.454545 69.552965 
L 216.818182 69.552965 
L 242.181818 69.552965 
L 267.545455 69.552965 
L 292.909091 69.552965 
L 318.272727 69.552965 
L 343.636364 69.552965 
L 369 69.552965 
L 394.363636 69.552965 
L 419.727273 69.552965 
L 445.090909 69.552965 
L 470.454545 68.816953 
L 495.818182 68.816953 
L 521.181818 68.816953 
L 546.545455 68.816953 
L 571.909091 68.816953 
L 597.272727 68.816953 
L 622.636364 68.816953 
" clip-path="url(#p8ac731daca)" style="fill: none; stroke: #d8a0aa; stroke-width: 1.5; stroke-linecap: round"/>
    <defs>
     <path id="m9591760137" d="M -2.12132 -2.12132 
L -2.12132 2.12132 
L 2.12132 2.12132 
L 2.12132 -2.12132 
z
" style="stroke: #ffffff; stroke-width: 0.75; stroke-linejoin: miter"/>
    </defs>
    <g clip-path="url(#p8ac731daca)">
     <use xlink:href="#m9591760137" x="115.363636" y="214.820951" style="fill: #d8a0aa; stroke: #ffffff; stroke-width: 0.75; stroke-linejoin: miter"/>
     <use xlink:href="#m9591760137" x="140.727273" y="69.552965" style="fill: #d8a0aa; stroke: #ffffff; stroke-width: 0.75; stroke-linejoin: miter"/>
     <use xlink:href="#m9591760137" x="166.090909" y="69.552965" style="fill: #d8a0aa; stroke: #ffffff; stroke-width: 0.75; stroke-linejoin: miter"/>
     <use xlink:href="#m9591760137" x="191.454545" y="69.552965" style="fill: #d8a0aa; stroke: #ffffff; stroke-width: 0.75; stroke-linejoin: miter"/>
     <use xlink:href="#m9591760137" x="216.818182" y="69.552965" style="fill: #d8a0aa; stroke: #ffffff; stroke-width: 0.75; stroke-linejoin: miter"/>
     <use xlink:href="#m9591760137" x="242.181818" y="69.552965" style="fill: #d8a0aa; stroke: #ffffff; stroke-width: 0.75; stroke-linejoin: miter"/>
     <use xlink:href="#m9591760137" x="267.545455" y="69.552965" style="fill: #d8a0aa; stroke: #ffffff; stroke-width: 0.75; stroke-linejoin: miter"/>
     <use xlink:href="#m9591760137" x="292.909091" y="69.552965" style="fill: #d8a0aa; stroke: #ffffff; stroke-width: 0.75; stroke-linejoin: miter"/>
     <use xlink:href="#m9591760137" x="318.272727" y="69.552965" style="fill: #d8a0aa; stroke: #ffffff; stroke-width: 0.75; stroke-linejoin: miter"/>
     <use xlink:href="#m9591760137" x="343.636364" y="69.552965" style="fill: #d8a0aa; stroke: #ffffff; stroke-width: 0.75; stroke-linejoin: miter"/>
     <use xlink:href="#m9591760137" x="369" y="69.552965" style="fill: #d8a0aa; stroke: #ffffff; stroke-width: 0.75; stroke-linejoin: miter"/>
     <use xlink:href="#m9591760137" x="394.363636" y="69.552965" style="fill: #d8a0aa; stroke: #ffffff; stroke-width: 0.75; stroke-linejoin: miter"/>
     <use xlink:href="#m9591760137" x="419.727273" y="69.552965" style="fill: #d8a0aa; stroke: #ffffff; stroke-width: 0.75; stroke-linejoin: miter"/>
     <use xlink:href="#m9591760137" x="445.090909" y="69.552965" style="fill: #d8a0aa; stroke: #ffffff; stroke-width: 0.75; stroke-linejoin: miter"/>
     <use xlink:href="#m9591760137" x="470.454545" y="68.816953" style="fill: #d8a0aa; stroke: #ffffff; stroke-width: 0.75; stroke-linejoin: miter"/>
     <use xlink:href="#m9591760137" x="495.818182" y="68.816953" style="fill: #d8a0aa; stroke: #ffffff; stroke-width: 0.75; stroke-linejoin: miter"/>
     <use xlink:href="#m9591760137" x="521.181818" y="68.816953" style="fill: #d8a0aa; stroke: #ffffff; stroke-width: 0.75; stroke-linejoin: miter"/>
     <use xlink:href="#m9591760137" x="546.545455" y="68.816953" style="fill: #d8a0aa; stroke: #ffffff; stroke-width: 0.75; stroke-linejoin: miter"/>
     <use xlink:href="#m9591760137" x="571.909091" y="68.816953" style="fill: #d8a0aa; stroke: #ffffff; stroke-width: 0.75; stroke-linejoin: miter"/>
     <use xlink:href="#m9591760137" x="597.272727" y="68.816953" style="fill: #d8a0aa; stroke: #ffffff; stroke-width: 0.75; stroke-linejoin: miter"/>
     <use xlink:href="#m9591760137" x="622.636364" y="68.816953" style="fill: #d8a0aa; stroke: #ffffff; stroke-width: 0.75; stroke-linejoin: miter"/>
    </g>
   </g>
   <g id="line2d_21">
    <path d="M 115.363636 211.10454 
L 140.727273 69.552965 
L 166.090909 69.552965 
L 191.454545 69.552965 
L 216.818182 68.794163 
L 242.181818 69.552965 
L 267.545455 69.552965 
L 292.909091 69.552965 
L 318.272727 69.552965 
L 343.636364 69.552965 
L 369 69.552965 
L 394.363636 69.552965 
L 419.727273 69.552965 
L 445.090909 68.794163 
L 470.454545 68.794163 
L 495.818182 68.794163 
L 521.181818 68.794163 
L 546.545455 68.794163 
L 571.909091 68.794163 
L 597.272727 68.794163 
L 622.636364 68.794163 
" clip-path="url(#p8ac731daca)" style="fill: none; stroke: #c8879e; stroke-width: 1.5; stroke-linecap: round"/>
    <defs>
     <path id="mdebe19eb2b" d="M -1 3 
L 1 3 
L 1 1 
L 3 1 
L 3 -1 
L 1 -1 
L 1 -3 
L -1 -3 
L -1 -1 
L -3 -1 
L -3 1 
L -1 1 
z
" style="stroke: #ffffff; stroke-width: 0.75; stroke-linejoin: miter"/>
    </defs>
    <g clip-path="url(#p8ac731daca)">
     <use xlink:href="#mdebe19eb2b" x="115.363636" y="211.10454" style="fill: #c8879e; stroke: #ffffff; stroke-width: 0.75; stroke-linejoin: miter"/>
     <use xlink:href="#mdebe19eb2b" x="140.727273" y="69.552965" style="fill: #c8879e; stroke: #ffffff; stroke-width: 0.75; stroke-linejoin: miter"/>
     <use xlink:href="#mdebe19eb2b" x="166.090909" y="69.552965" style="fill: #c8879e; stroke: #ffffff; stroke-width: 0.75; stroke-linejoin: miter"/>
     <use xlink:href="#mdebe19eb2b" x="191.454545" y="69.552965" style="fill: #c8879e; stroke: #ffffff; stroke-width: 0.75; stroke-linejoin: miter"/>
     <use xlink:href="#mdebe19eb2b" x="216.818182" y="68.794163" style="fill: #c8879e; stroke: #ffffff; stroke-width: 0.75; stroke-linejoin: miter"/>
     <use xlink:href="#mdebe19eb2b" x="242.181818" y="69.552965" style="fill: #c8879e; stroke: #ffffff; stroke-width: 0.75; stroke-linejoin: miter"/>
     <use xlink:href="#mdebe19eb2b" x="267.545455" y="69.552965" style="fill: #c8879e; stroke: #ffffff; stroke-width: 0.75; stroke-linejoin: miter"/>
     <use xlink:href="#mdebe19eb2b" x="292.909091" y="69.552965" style="fill: #c8879e; stroke: #ffffff; stroke-width: 0.75; stroke-linejoin: miter"/>
     <use xlink:href="#mdebe19eb2b" x="318.272727" y="69.552965" style="fill: #c8879e; stroke: #ffffff; stroke-width: 0.75; stroke-linejoin: miter"/>
     <use xlink:href="#mdebe19eb2b" x="343.636364" y="69.552965" style="fill: #c8879e; stroke: #ffffff; stroke-width: 0.75; stroke-linejoin: miter"/>
     <use xlink:href="#mdebe19eb2b" x="369" y="69.552965" style="fill: #c8879e; stroke: #ffffff; stroke-width: 0.75; stroke-linejoin: miter"/>
     <use xlink:href="#mdebe19eb2b" x="394.363636" y="69.552965" style="fill: #c8879e; stroke: #ffffff; stroke-width: 0.75; stroke-linejoin: miter"/>
     <use xlink:href="#mdebe19eb2b" x="419.727273" y="69.552965" style="fill: #c8879e; stroke: #ffffff; stroke-width: 0.75; stroke-linejoin: miter"/>
     <use xlink:href="#mdebe19eb2b" x="445.090909" y="68.794163" style="fill: #c8879e; stroke: #ffffff; stroke-width: 0.75; stroke-linejoin: miter"/>
     <use xlink:href="#mdebe19eb2b" x="470.454545" y="68.794163" style="fill: #c8879e; stroke: #ffffff; stroke-width: 0.75; stroke-linejoin: miter"/>
     <use xlink:href="#mdebe19eb2b" x="495.818182" y="68.794163" style="fill: #c8879e; stroke: #ffffff; stroke-width: 0.75; stroke-linejoin: miter"/>
     <use xlink:href="#mdebe19eb2b" x="521.181818" y="68.794163" style="fill: #c8879e; stroke: #ffffff; stroke-width: 0.75; stroke-linejoin: miter"/>
     <use xlink:href="#mdebe19eb2b" x="546.545455" y="68.794163" style="fill: #c8879e; stroke: #ffffff; stroke-width: 0.75; stroke-linejoin: miter"/>
     <use xlink:href="#mdebe19eb2b" x="571.909091" y="68.794163" style="fill: #c8879e; stroke: #ffffff; stroke-width: 0.75; stroke-linejoin: miter"/>
     <use xlink:href="#mdebe19eb2b" x="597.272727" y="68.794163" style="fill: #c8879e; stroke: #ffffff; stroke-width: 0.75; stroke-linejoin: miter"/>
     <use xlink:href="#mdebe19eb2b" x="622.636364" y="68.794163" style="fill: #c8879e; stroke: #ffffff; stroke-width: 0.75; stroke-linejoin: miter"/>
    </g>
   </g>
   <g id="line2d_22">
    <path d="M 115.363636 145.686988 
L 140.727273 69.552965 
L 166.090909 69.552965 
L 191.454545 69.552965 
L 216.818182 69.552965 
L 242.181818 69.552965 
L 267.545455 69.552965 
L 292.909091 69.552965 
L 318.272727 69.552965 
L 343.636364 69.552965 
L 369 69.552965 
L 394.363636 69.552965 
L 419.727273 69.552965 
L 445.090909 69.552965 
L 470.454545 69.552965 
L 495.818182 69.552965 
L 521.181818 69.552965 
L 546.545455 69.552965 
L 571.909091 69.552965 
L 597.272727 69.552965 
L 622.636364 69.552965 
" clip-path="url(#p8ac731daca)" style="fill: none; stroke: #b57294; stroke-width: 1.5; stroke-linecap: round"/>
    <defs>
     <path id="m90df03fe8a" d="M 0 -3 
L -3 -0 
L -0 3 
L 3 0 
z
" style="stroke: #ffffff; stroke-width: 0.75; stroke-linejoin: miter"/>
    </defs>
    <g clip-path="url(#p8ac731daca)">
     <use xlink:href="#m90df03fe8a" x="115.363636" y="145.686988" style="fill: #b57294; stroke: #ffffff; stroke-width: 0.75; stroke-linejoin: miter"/>
     <use xlink:href="#m90df03fe8a" x="140.727273" y="69.552965" style="fill: #b57294; stroke: #ffffff; stroke-width: 0.75; stroke-linejoin: miter"/>
     <use xlink:href="#m90df03fe8a" x="166.090909" y="69.552965" style="fill: #b57294; stroke: #ffffff; stroke-width: 0.75; stroke-linejoin: miter"/>
     <use xlink:href="#m90df03fe8a" x="191.454545" y="69.552965" style="fill: #b57294; stroke: #ffffff; stroke-width: 0.75; stroke-linejoin: miter"/>
     <use xlink:href="#m90df03fe8a" x="216.818182" y="69.552965" style="fill: #b57294; stroke: #ffffff; stroke-width: 0.75; stroke-linejoin: miter"/>
     <use xlink:href="#m90df03fe8a" x="242.181818" y="69.552965" style="fill: #b57294; stroke: #ffffff; stroke-width: 0.75; stroke-linejoin: miter"/>
     <use xlink:href="#m90df03fe8a" x="267.545455" y="69.552965" style="fill: #b57294; stroke: #ffffff; stroke-width: 0.75; stroke-linejoin: miter"/>
     <use xlink:href="#m90df03fe8a" x="292.909091" y="69.552965" style="fill: #b57294; stroke: #ffffff; stroke-width: 0.75; stroke-linejoin: miter"/>
     <use xlink:href="#m90df03fe8a" x="318.272727" y="69.552965" style="fill: #b57294; stroke: #ffffff; stroke-width: 0.75; stroke-linejoin: miter"/>
     <use xlink:href="#m90df03fe8a" x="343.636364" y="69.552965" style="fill: #b57294; stroke: #ffffff; stroke-width: 0.75; stroke-linejoin: miter"/>
     <use xlink:href="#m90df03fe8a" x="369" y="69.552965" style="fill: #b57294; stroke: #ffffff; stroke-width: 0.75; stroke-linejoin: miter"/>
     <use xlink:href="#m90df03fe8a" x="394.363636" y="69.552965" style="fill: #b57294; stroke: #ffffff; stroke-width: 0.75; stroke-linejoin: miter"/>
     <use xlink:href="#m90df03fe8a" x="419.727273" y="69.552965" style="fill: #b57294; stroke: #ffffff; stroke-width: 0.75; stroke-linejoin: miter"/>
     <use xlink:href="#m90df03fe8a" x="445.090909" y="69.552965" style="fill: #b57294; stroke: #ffffff; stroke-width: 0.75; stroke-linejoin: miter"/>
     <use xlink:href="#m90df03fe8a" x="470.454545" y="69.552965" style="fill: #b57294; stroke: #ffffff; stroke-width: 0.75; stroke-linejoin: miter"/>
     <use xlink:href="#m90df03fe8a" x="495.818182" y="69.552965" style="fill: #b57294; stroke: #ffffff; stroke-width: 0.75; stroke-linejoin: miter"/>
     <use xlink:href="#m90df03fe8a" x="521.181818" y="69.552965" style="fill: #b57294; stroke: #ffffff; stroke-width: 0.75; stroke-linejoin: miter"/>
     <use xlink:href="#m90df03fe8a" x="546.545455" y="69.552965" style="fill: #b57294; stroke: #ffffff; stroke-width: 0.75; stroke-linejoin: miter"/>
     <use xlink:href="#m90df03fe8a" x="571.909091" y="69.552965" style="fill: #b57294; stroke: #ffffff; stroke-width: 0.75; stroke-linejoin: miter"/>
     <use xlink:href="#m90df03fe8a" x="597.272727" y="69.552965" style="fill: #b57294; stroke: #ffffff; stroke-width: 0.75; stroke-linejoin: miter"/>
     <use xlink:href="#m90df03fe8a" x="622.636364" y="69.552965" style="fill: #b57294; stroke: #ffffff; stroke-width: 0.75; stroke-linejoin: miter"/>
    </g>
   </g>
   <g id="line2d_23">
    <path d="M 115.363636 146.754172 
L 140.727273 69.552965 
L 166.090909 69.552965 
L 191.454545 68.801836 
L 216.818182 69.552965 
L 242.181818 69.552965 
L 267.545455 69.552965 
L 292.909091 69.552965 
L 318.272727 69.552965 
L 343.636364 69.552965 
L 369 69.552965 
L 394.363636 69.552965 
L 419.727273 68.794163 
L 445.090909 68.794163 
L 470.454545 69.552965 
L 495.818182 68.801836 
L 521.181818 68.801836 
L 546.545455 68.801836 
L 571.909091 68.801836 
L 597.272727 68.801836 
L 622.636364 68.801836 
" clip-path="url(#p8ac731daca)" style="fill: none; stroke: #9d5d89; stroke-width: 1.5; stroke-linecap: round"/>
    <defs>
     <path id="mb209a19d56" d="M 0 -3 
L -1.06066 -1.06066 
L -3 -0 
L -1.06066 1.06066 
L -0 3 
L 1.06066 1.06066 
L 3 0 
L 1.06066 -1.06066 
z
" style="stroke: #ffffff; stroke-width: 0.75; stroke-linejoin: bevel"/>
    </defs>
    <g clip-path="url(#p8ac731daca)">
     <use xlink:href="#mb209a19d56" x="115.363636" y="146.754172" style="fill: #9d5d89; stroke: #ffffff; stroke-width: 0.75; stroke-linejoin: bevel"/>
     <use xlink:href="#mb209a19d56" x="140.727273" y="69.552965" style="fill: #9d5d89; stroke: #ffffff; stroke-width: 0.75; stroke-linejoin: bevel"/>
     <use xlink:href="#mb209a19d56" x="166.090909" y="69.552965" style="fill: #9d5d89; stroke: #ffffff; stroke-width: 0.75; stroke-linejoin: bevel"/>
     <use xlink:href="#mb209a19d56" x="191.454545" y="68.801836" style="fill: #9d5d89; stroke: #ffffff; stroke-width: 0.75; stroke-linejoin: bevel"/>
     <use xlink:href="#mb209a19d56" x="216.818182" y="69.552965" style="fill: #9d5d89; stroke: #ffffff; stroke-width: 0.75; stroke-linejoin: bevel"/>
     <use xlink:href="#mb209a19d56" x="242.181818" y="69.552965" style="fill: #9d5d89; stroke: #ffffff; stroke-width: 0.75; stroke-linejoin: bevel"/>
     <use xlink:href="#mb209a19d56" x="267.545455" y="69.552965" style="fill: #9d5d89; stroke: #ffffff; stroke-width: 0.75; stroke-linejoin: bevel"/>
     <use xlink:href="#mb209a19d56" x="292.909091" y="69.552965" style="fill: #9d5d89; stroke: #ffffff; stroke-width: 0.75; stroke-linejoin: bevel"/>
     <use xlink:href="#mb209a19d56" x="318.272727" y="69.552965" style="fill: #9d5d89; stroke: #ffffff; stroke-width: 0.75; stroke-linejoin: bevel"/>
     <use xlink:href="#mb209a19d56" x="343.636364" y="69.552965" style="fill: #9d5d89; stroke: #ffffff; stroke-width: 0.75; stroke-linejoin: bevel"/>
     <use xlink:href="#mb209a19d56" x="369" y="69.552965" style="fill: #9d5d89; stroke: #ffffff; stroke-width: 0.75; stroke-linejoin: bevel"/>
     <use xlink:href="#mb209a19d56" x="394.363636" y="69.552965" style="fill: #9d5d89; stroke: #ffffff; stroke-width: 0.75; stroke-linejoin: bevel"/>
     <use xlink:href="#mb209a19d56" x="419.727273" y="68.794163" style="fill: #9d5d89; stroke: #ffffff; stroke-width: 0.75; stroke-linejoin: bevel"/>
     <use xlink:href="#mb209a19d56" x="445.090909" y="68.794163" style="fill: #9d5d89; stroke: #ffffff; stroke-width: 0.75; stroke-linejoin: bevel"/>
     <use xlink:href="#mb209a19d56" x="470.454545" y="69.552965" style="fill: #9d5d89; stroke: #ffffff; stroke-width: 0.75; stroke-linejoin: bevel"/>
     <use xlink:href="#mb209a19d56" x="495.818182" y="68.801836" style="fill: #9d5d89; stroke: #ffffff; stroke-width: 0.75; stroke-linejoin: bevel"/>
     <use xlink:href="#mb209a19d56" x="521.181818" y="68.801836" style="fill: #9d5d89; stroke: #ffffff; stroke-width: 0.75; stroke-linejoin: bevel"/>
     <use xlink:href="#mb209a19d56" x="546.545455" y="68.801836" style="fill: #9d5d89; stroke: #ffffff; stroke-width: 0.75; stroke-linejoin: bevel"/>
     <use xlink:href="#mb209a19d56" x="571.909091" y="68.801836" style="fill: #9d5d89; stroke: #ffffff; stroke-width: 0.75; stroke-linejoin: bevel"/>
     <use xlink:href="#mb209a19d56" x="597.272727" y="68.801836" style="fill: #9d5d89; stroke: #ffffff; stroke-width: 0.75; stroke-linejoin: bevel"/>
     <use xlink:href="#mb209a19d56" x="622.636364" y="68.801836" style="fill: #9d5d89; stroke: #ffffff; stroke-width: 0.75; stroke-linejoin: bevel"/>
    </g>
   </g>
   <g id="line2d_24">
    <path d="M 115.363636 290.908382 
L 140.727273 69.552965 
L 166.090909 69.552965 
L 191.454545 69.552965 
L 216.818182 69.552965 
L 242.181818 69.552965 
L 267.545455 69.552965 
L 292.909091 69.552965 
L 318.272727 69.552965 
L 343.636364 69.552965 
L 369 69.552965 
L 394.363636 69.552965 
L 419.727273 69.552965 
L 445.090909 69.552965 
L 470.454545 69.552965 
L 495.818182 69.552965 
L 521.181818 69.552965 
L 546.545455 69.552965 
L 571.909091 69.250702 
L 597.272727 69.250702 
L 622.636364 69.552965 
" clip-path="url(#p8ac731daca)" style="fill: none; stroke: #834c7d; stroke-width: 1.5; stroke-linecap: round"/>
    <defs>
     <path id="m49b0334ee3" d="M 0 -3 
L -3 3 
L 3 3 
z
" style="stroke: #ffffff; stroke-width: 0.75; stroke-linejoin: miter"/>
    </defs>
    <g clip-path="url(#p8ac731daca)">
     <use xlink:href="#m49b0334ee3" x="115.363636" y="290.908382" style="fill: #834c7d; stroke: #ffffff; stroke-width: 0.75; stroke-linejoin: miter"/>
     <use xlink:href="#m49b0334ee3" x="140.727273" y="69.552965" style="fill: #834c7d; stroke: #ffffff; stroke-width: 0.75; stroke-linejoin: miter"/>
     <use xlink:href="#m49b0334ee3" x="166.090909" y="69.552965" style="fill: #834c7d; stroke: #ffffff; stroke-width: 0.75; stroke-linejoin: miter"/>
     <use xlink:href="#m49b0334ee3" x="191.454545" y="69.552965" style="fill: #834c7d; stroke: #ffffff; stroke-width: 0.75; stroke-linejoin: miter"/>
     <use xlink:href="#m49b0334ee3" x="216.818182" y="69.552965" style="fill: #834c7d; stroke: #ffffff; stroke-width: 0.75; stroke-linejoin: miter"/>
     <use xlink:href="#m49b0334ee3" x="242.181818" y="69.552965" style="fill: #834c7d; stroke: #ffffff; stroke-width: 0.75; stroke-linejoin: miter"/>
     <use xlink:href="#m49b0334ee3" x="267.545455" y="69.552965" style="fill: #834c7d; stroke: #ffffff; stroke-width: 0.75; stroke-linejoin: miter"/>
     <use xlink:href="#m49b0334ee3" x="292.909091" y="69.552965" style="fill: #834c7d; stroke: #ffffff; stroke-width: 0.75; stroke-linejoin: miter"/>
     <use xlink:href="#m49b0334ee3" x="318.272727" y="69.552965" style="fill: #834c7d; stroke: #ffffff; stroke-width: 0.75; stroke-linejoin: miter"/>
     <use xlink:href="#m49b0334ee3" x="343.636364" y="69.552965" style="fill: #834c7d; stroke: #ffffff; stroke-width: 0.75; stroke-linejoin: miter"/>
     <use xlink:href="#m49b0334ee3" x="369" y="69.552965" style="fill: #834c7d; stroke: #ffffff; stroke-width: 0.75; stroke-linejoin: miter"/>
     <use xlink:href="#m49b0334ee3" x="394.363636" y="69.552965" style="fill: #834c7d; stroke: #ffffff; stroke-width: 0.75; stroke-linejoin: miter"/>
     <use xlink:href="#m49b0334ee3" x="419.727273" y="69.552965" style="fill: #834c7d; stroke: #ffffff; stroke-width: 0.75; stroke-linejoin: miter"/>
     <use xlink:href="#m49b0334ee3" x="445.090909" y="69.552965" style="fill: #834c7d; stroke: #ffffff; stroke-width: 0.75; stroke-linejoin: miter"/>
     <use xlink:href="#m49b0334ee3" x="470.454545" y="69.552965" style="fill: #834c7d; stroke: #ffffff; stroke-width: 0.75; stroke-linejoin: miter"/>
     <use xlink:href="#m49b0334ee3" x="495.818182" y="69.552965" style="fill: #834c7d; stroke: #ffffff; stroke-width: 0.75; stroke-linejoin: miter"/>
     <use xlink:href="#m49b0334ee3" x="521.181818" y="69.552965" style="fill: #834c7d; stroke: #ffffff; stroke-width: 0.75; stroke-linejoin: miter"/>
     <use xlink:href="#m49b0334ee3" x="546.545455" y="69.552965" style="fill: #834c7d; stroke: #ffffff; stroke-width: 0.75; stroke-linejoin: miter"/>
     <use xlink:href="#m49b0334ee3" x="571.909091" y="69.250702" style="fill: #834c7d; stroke: #ffffff; stroke-width: 0.75; stroke-linejoin: miter"/>
     <use xlink:href="#m49b0334ee3" x="597.272727" y="69.250702" style="fill: #834c7d; stroke: #ffffff; stroke-width: 0.75; stroke-linejoin: miter"/>
     <use xlink:href="#m49b0334ee3" x="622.636364" y="69.552965" style="fill: #834c7d; stroke: #ffffff; stroke-width: 0.75; stroke-linejoin: miter"/>
    </g>
   </g>
   <g id="line2d_25">
    <path d="M 115.363636 355.109414 
L 140.727273 69.552965 
L 166.090909 69.552965 
L 191.454545 69.552965 
L 216.818182 68.801836 
L 242.181818 69.552965 
L 267.545455 69.552965 
L 292.909091 69.552965 
L 318.272727 69.552965 
L 343.636364 69.552965 
L 369 69.552965 
L 394.363636 69.552965 
L 419.727273 69.552965 
L 445.090909 69.552965 
L 470.454545 69.552965 
L 495.818182 68.809432 
L 521.181818 68.809432 
L 546.545455 68.809432 
L 571.909091 68.809432 
L 597.272727 68.809432 
L 622.636364 68.809432 
" clip-path="url(#p8ac731daca)" style="fill: none; stroke: #653b6c; stroke-width: 1.5; stroke-linecap: round"/>
    <defs>
     <path id="mec70784381" d="M -2.12132 -2.12132 
L -1.5 -0 
L -2.12132 2.12132 
L -0 1.5 
L 2.12132 2.12132 
L 1.5 0 
L 2.12132 -2.12132 
L 0 -1.5 
z
" style="stroke: #ffffff; stroke-width: 0.75; stroke-linejoin: bevel"/>
    </defs>
    <g clip-path="url(#p8ac731daca)">
     <use xlink:href="#mec70784381" x="115.363636" y="355.109414" style="fill: #653b6c; stroke: #ffffff; stroke-width: 0.75; stroke-linejoin: bevel"/>
     <use xlink:href="#mec70784381" x="140.727273" y="69.552965" style="fill: #653b6c; stroke: #ffffff; stroke-width: 0.75; stroke-linejoin: bevel"/>
     <use xlink:href="#mec70784381" x="166.090909" y="69.552965" style="fill: #653b6c; stroke: #ffffff; stroke-width: 0.75; stroke-linejoin: bevel"/>
     <use xlink:href="#mec70784381" x="191.454545" y="69.552965" style="fill: #653b6c; stroke: #ffffff; stroke-width: 0.75; stroke-linejoin: bevel"/>
     <use xlink:href="#mec70784381" x="216.818182" y="68.801836" style="fill: #653b6c; stroke: #ffffff; stroke-width: 0.75; stroke-linejoin: bevel"/>
     <use xlink:href="#mec70784381" x="242.181818" y="69.552965" style="fill: #653b6c; stroke: #ffffff; stroke-width: 0.75; stroke-linejoin: bevel"/>
     <use xlink:href="#mec70784381" x="267.545455" y="69.552965" style="fill: #653b6c; stroke: #ffffff; stroke-width: 0.75; stroke-linejoin: bevel"/>
     <use xlink:href="#mec70784381" x="292.909091" y="69.552965" style="fill: #653b6c; stroke: #ffffff; stroke-width: 0.75; stroke-linejoin: bevel"/>
     <use xlink:href="#mec70784381" x="318.272727" y="69.552965" style="fill: #653b6c; stroke: #ffffff; stroke-width: 0.75; stroke-linejoin: bevel"/>
     <use xlink:href="#mec70784381" x="343.636364" y="69.552965" style="fill: #653b6c; stroke: #ffffff; stroke-width: 0.75; stroke-linejoin: bevel"/>
     <use xlink:href="#mec70784381" x="369" y="69.552965" style="fill: #653b6c; stroke: #ffffff; stroke-width: 0.75; stroke-linejoin: bevel"/>
     <use xlink:href="#mec70784381" x="394.363636" y="69.552965" style="fill: #653b6c; stroke: #ffffff; stroke-width: 0.75; stroke-linejoin: bevel"/>
     <use xlink:href="#mec70784381" x="419.727273" y="69.552965" style="fill: #653b6c; stroke: #ffffff; stroke-width: 0.75; stroke-linejoin: bevel"/>
     <use xlink:href="#mec70784381" x="445.090909" y="69.552965" style="fill: #653b6c; stroke: #ffffff; stroke-width: 0.75; stroke-linejoin: bevel"/>
     <use xlink:href="#mec70784381" x="470.454545" y="69.552965" style="fill: #653b6c; stroke: #ffffff; stroke-width: 0.75; stroke-linejoin: bevel"/>
     <use xlink:href="#mec70784381" x="495.818182" y="68.809432" style="fill: #653b6c; stroke: #ffffff; stroke-width: 0.75; stroke-linejoin: bevel"/>
     <use xlink:href="#mec70784381" x="521.181818" y="68.809432" style="fill: #653b6c; stroke: #ffffff; stroke-width: 0.75; stroke-linejoin: bevel"/>
     <use xlink:href="#mec70784381" x="546.545455" y="68.809432" style="fill: #653b6c; stroke: #ffffff; stroke-width: 0.75; stroke-linejoin: bevel"/>
     <use xlink:href="#mec70784381" x="571.909091" y="68.809432" style="fill: #653b6c; stroke: #ffffff; stroke-width: 0.75; stroke-linejoin: bevel"/>
     <use xlink:href="#mec70784381" x="597.272727" y="68.809432" style="fill: #653b6c; stroke: #ffffff; stroke-width: 0.75; stroke-linejoin: bevel"/>
     <use xlink:href="#mec70784381" x="622.636364" y="68.809432" style="fill: #653b6c; stroke: #ffffff; stroke-width: 0.75; stroke-linejoin: bevel"/>
    </g>
   </g>
   <g id="line2d_26">
    <path d="M 115.363636 293.237799 
L 140.727273 69.552965 
L 166.090909 69.552965 
L 191.454545 68.794163 
L 216.818182 69.552965 
L 242.181818 69.552965 
L 267.545455 69.552965 
L 292.909091 69.552965 
L 318.272727 69.552965 
L 343.636364 69.236405 
L 369 69.552965 
L 394.363636 69.552965 
L 419.727273 69.236405 
L 445.090909 69.236405 
L 470.454545 68.477603 
L 495.818182 68.477603 
L 521.181818 68.477603 
L 546.545455 68.477603 
L 571.909091 68.477603 
L 597.272727 68.477603 
L 622.636364 68.477603 
" clip-path="url(#p8ac731daca)" style="fill: none; stroke: #492d58; stroke-width: 1.5; stroke-linecap: round"/>
    <defs>
     <path id="m37c82ad3d5" d="M -0 3 
L 3 -3 
L -3 -3 
z
" style="stroke: #ffffff; stroke-width: 0.75; stroke-linejoin: miter"/>
    </defs>
    <g clip-path="url(#p8ac731daca)">
     <use xlink:href="#m37c82ad3d5" x="115.363636" y="293.237799" style="fill: #492d58; stroke: #ffffff; stroke-width: 0.75; stroke-linejoin: miter"/>
     <use xlink:href="#m37c82ad3d5" x="140.727273" y="69.552965" style="fill: #492d58; stroke: #ffffff; stroke-width: 0.75; stroke-linejoin: miter"/>
     <use xlink:href="#m37c82ad3d5" x="166.090909" y="69.552965" style="fill: #492d58; stroke: #ffffff; stroke-width: 0.75; stroke-linejoin: miter"/>
     <use xlink:href="#m37c82ad3d5" x="191.454545" y="68.794163" style="fill: #492d58; stroke: #ffffff; stroke-width: 0.75; stroke-linejoin: miter"/>
     <use xlink:href="#m37c82ad3d5" x="216.818182" y="69.552965" style="fill: #492d58; stroke: #ffffff; stroke-width: 0.75; stroke-linejoin: miter"/>
     <use xlink:href="#m37c82ad3d5" x="242.181818" y="69.552965" style="fill: #492d58; stroke: #ffffff; stroke-width: 0.75; stroke-linejoin: miter"/>
     <use xlink:href="#m37c82ad3d5" x="267.545455" y="69.552965" style="fill: #492d58; stroke: #ffffff; stroke-width: 0.75; stroke-linejoin: miter"/>
     <use xlink:href="#m37c82ad3d5" x="292.909091" y="69.552965" style="fill: #492d58; stroke: #ffffff; stroke-width: 0.75; stroke-linejoin: miter"/>
     <use xlink:href="#m37c82ad3d5" x="318.272727" y="69.552965" style="fill: #492d58; stroke: #ffffff; stroke-width: 0.75; stroke-linejoin: miter"/>
     <use xlink:href="#m37c82ad3d5" x="343.636364" y="69.236405" style="fill: #492d58; stroke: #ffffff; stroke-width: 0.75; stroke-linejoin: miter"/>
     <use xlink:href="#m37c82ad3d5" x="369" y="69.552965" style="fill: #492d58; stroke: #ffffff; stroke-width: 0.75; stroke-linejoin: miter"/>
     <use xlink:href="#m37c82ad3d5" x="394.363636" y="69.552965" style="fill: #492d58; stroke: #ffffff; stroke-width: 0.75; stroke-linejoin: miter"/>
     <use xlink:href="#m37c82ad3d5" x="419.727273" y="69.236405" style="fill: #492d58; stroke: #ffffff; stroke-width: 0.75; stroke-linejoin: miter"/>
     <use xlink:href="#m37c82ad3d5" x="445.090909" y="69.236405" style="fill: #492d58; stroke: #ffffff; stroke-width: 0.75; stroke-linejoin: miter"/>
     <use xlink:href="#m37c82ad3d5" x="470.454545" y="68.477603" style="fill: #492d58; stroke: #ffffff; stroke-width: 0.75; stroke-linejoin: miter"/>
     <use xlink:href="#m37c82ad3d5" x="495.818182" y="68.477603" style="fill: #492d58; stroke: #ffffff; stroke-width: 0.75; stroke-linejoin: miter"/>
     <use xlink:href="#m37c82ad3d5" x="521.181818" y="68.477603" style="fill: #492d58; stroke: #ffffff; stroke-width: 0.75; stroke-linejoin: miter"/>
     <use xlink:href="#m37c82ad3d5" x="546.545455" y="68.477603" style="fill: #492d58; stroke: #ffffff; stroke-width: 0.75; stroke-linejoin: miter"/>
     <use xlink:href="#m37c82ad3d5" x="571.909091" y="68.477603" style="fill: #492d58; stroke: #ffffff; stroke-width: 0.75; stroke-linejoin: miter"/>
     <use xlink:href="#m37c82ad3d5" x="597.272727" y="68.477603" style="fill: #492d58; stroke: #ffffff; stroke-width: 0.75; stroke-linejoin: miter"/>
     <use xlink:href="#m37c82ad3d5" x="622.636364" y="68.477603" style="fill: #492d58; stroke: #ffffff; stroke-width: 0.75; stroke-linejoin: miter"/>
    </g>
   </g>
   <g id="line2d_27">
    <path d="M 115.363636 293.190865 
L 140.727273 69.552965 
L 166.090909 69.552965 
L 191.454545 69.552965 
L 216.818182 69.552965 
L 242.181818 68.794163 
L 267.545455 69.552965 
L 292.909091 69.552965 
L 318.272727 69.552965 
L 343.636364 69.552965 
L 369 69.552965 
L 394.363636 69.552965 
L 419.727273 69.552965 
L 445.090909 69.552965 
L 470.454545 69.552965 
L 495.818182 69.552965 
L 521.181818 69.552965 
L 546.545455 69.552965 
L 571.909091 69.552965 
L 597.272727 69.552965 
L 622.636364 69.552965 
" clip-path="url(#p8ac731daca)" style="fill: none; stroke: #2d1e3e; stroke-width: 1.5; stroke-linecap: round"/>
    <defs>
     <path id="m6a465648bc" d="M -1.5 -2.598076 
L -1.299038 -0.75 
L -3 -0 
L -1.299038 0.75 
L -1.5 2.598076 
L -0 1.5 
L 1.5 2.598076 
L 1.299038 0.75 
L 3 0 
L 1.299038 -0.75 
L 1.5 -2.598076 
L 0 -1.5 
z
" style="stroke: #ffffff; stroke-width: 0.75; stroke-linejoin: bevel"/>
    </defs>
    <g clip-path="url(#p8ac731daca)">
     <use xlink:href="#m6a465648bc" x="115.363636" y="293.190865" style="fill: #2d1e3e; stroke: #ffffff; stroke-width: 0.75; stroke-linejoin: bevel"/>
     <use xlink:href="#m6a465648bc" x="140.727273" y="69.552965" style="fill: #2d1e3e; stroke: #ffffff; stroke-width: 0.75; stroke-linejoin: bevel"/>
     <use xlink:href="#m6a465648bc" x="166.090909" y="69.552965" style="fill: #2d1e3e; stroke: #ffffff; stroke-width: 0.75; stroke-linejoin: bevel"/>
     <use xlink:href="#m6a465648bc" x="191.454545" y="69.552965" style="fill: #2d1e3e; stroke: #ffffff; stroke-width: 0.75; stroke-linejoin: bevel"/>
     <use xlink:href="#m6a465648bc" x="216.818182" y="69.552965" style="fill: #2d1e3e; stroke: #ffffff; stroke-width: 0.75; stroke-linejoin: bevel"/>
     <use xlink:href="#m6a465648bc" x="242.181818" y="68.794163" style="fill: #2d1e3e; stroke: #ffffff; stroke-width: 0.75; stroke-linejoin: bevel"/>
     <use xlink:href="#m6a465648bc" x="267.545455" y="69.552965" style="fill: #2d1e3e; stroke: #ffffff; stroke-width: 0.75; stroke-linejoin: bevel"/>
     <use xlink:href="#m6a465648bc" x="292.909091" y="69.552965" style="fill: #2d1e3e; stroke: #ffffff; stroke-width: 0.75; stroke-linejoin: bevel"/>
     <use xlink:href="#m6a465648bc" x="318.272727" y="69.552965" style="fill: #2d1e3e; stroke: #ffffff; stroke-width: 0.75; stroke-linejoin: bevel"/>
     <use xlink:href="#m6a465648bc" x="343.636364" y="69.552965" style="fill: #2d1e3e; stroke: #ffffff; stroke-width: 0.75; stroke-linejoin: bevel"/>
     <use xlink:href="#m6a465648bc" x="369" y="69.552965" style="fill: #2d1e3e; stroke: #ffffff; stroke-width: 0.75; stroke-linejoin: bevel"/>
     <use xlink:href="#m6a465648bc" x="394.363636" y="69.552965" style="fill: #2d1e3e; stroke: #ffffff; stroke-width: 0.75; stroke-linejoin: bevel"/>
     <use xlink:href="#m6a465648bc" x="419.727273" y="69.552965" style="fill: #2d1e3e; stroke: #ffffff; stroke-width: 0.75; stroke-linejoin: bevel"/>
     <use xlink:href="#m6a465648bc" x="445.090909" y="69.552965" style="fill: #2d1e3e; stroke: #ffffff; stroke-width: 0.75; stroke-linejoin: bevel"/>
     <use xlink:href="#m6a465648bc" x="470.454545" y="69.552965" style="fill: #2d1e3e; stroke: #ffffff; stroke-width: 0.75; stroke-linejoin: bevel"/>
     <use xlink:href="#m6a465648bc" x="495.818182" y="69.552965" style="fill: #2d1e3e; stroke: #ffffff; stroke-width: 0.75; stroke-linejoin: bevel"/>
     <use xlink:href="#m6a465648bc" x="521.181818" y="69.552965" style="fill: #2d1e3e; stroke: #ffffff; stroke-width: 0.75; stroke-linejoin: bevel"/>
     <use xlink:href="#m6a465648bc" x="546.545455" y="69.552965" style="fill: #2d1e3e; stroke: #ffffff; stroke-width: 0.75; stroke-linejoin: bevel"/>
     <use xlink:href="#m6a465648bc" x="571.909091" y="69.552965" style="fill: #2d1e3e; stroke: #ffffff; stroke-width: 0.75; stroke-linejoin: bevel"/>
     <use xlink:href="#m6a465648bc" x="597.272727" y="69.552965" style="fill: #2d1e3e; stroke: #ffffff; stroke-width: 0.75; stroke-linejoin: bevel"/>
     <use xlink:href="#m6a465648bc" x="622.636364" y="69.552965" style="fill: #2d1e3e; stroke: #ffffff; stroke-width: 0.75; stroke-linejoin: bevel"/>
    </g>
   </g>
   <g id="line2d_28"/>
   <g id="line2d_29"/>
   <g id="line2d_30"/>
   <g id="line2d_31"/>
   <g id="line2d_32"/>
   <g id="line2d_33"/>
   <g id="line2d_34"/>
   <g id="line2d_35"/>
   <g id="line2d_36"/>
   <g id="line2d_37"/>
   <g id="line2d_38"/>
   <g id="line2d_39"/>
   <g id="line2d_40"/>
   <g id="line2d_41"/>
   <g id="line2d_42"/>
   <g id="line2d_43"/>
   <g id="patch_3">
    <path d="M 90 384.48 
L 90 51.84 
" style="fill: none; stroke: #cccccc; stroke-width: 0.8; stroke-linejoin: miter; stroke-linecap: square"/>
   </g>
   <g id="patch_4">
    <path d="M 648 384.48 
L 648 51.84 
" style="fill: none; stroke: #cccccc; stroke-width: 0.8; stroke-linejoin: miter; stroke-linecap: square"/>
   </g>
   <g id="patch_5">
    <path d="M 90 384.48 
L 648 384.48 
" style="fill: none; stroke: #cccccc; stroke-width: 0.8; stroke-linejoin: miter; stroke-linecap: square"/>
   </g>
   <g id="patch_6">
    <path d="M 90 51.84 
L 648 51.84 
" style="fill: none; stroke: #cccccc; stroke-width: 0.8; stroke-linejoin: miter; stroke-linecap: square"/>
   </g>
   <g id="text_20">
    <!-- Errorline Plot: Returns for Each Percentage -->
    <g style="fill: #262626" transform="translate(241.08375 45.84) scale(0.12 -0.12)">
     <defs>
      <path id="DejaVuSans-50" d="M 1259 4147 
L 1259 2394 
L 2053 2394 
Q 2494 2394 2734 2622 
Q 2975 2850 2975 3272 
Q 2975 3691 2734 3919 
Q 2494 4147 2053 4147 
L 1259 4147 
z
M 628 4666 
L 2053 4666 
Q 2838 4666 3239 4311 
Q 3641 3956 3641 3272 
Q 3641 2581 3239 2228 
Q 2838 1875 2053 1875 
L 1259 1875 
L 1259 0 
L 628 0 
L 628 4666 
z
" transform="scale(0.015625)"/>
      <path id="DejaVuSans-3a" d="M 750 794 
L 1409 794 
L 1409 0 
L 750 0 
L 750 794 
z
M 750 3309 
L 1409 3309 
L 1409 2516 
L 750 2516 
L 750 3309 
z
" transform="scale(0.015625)"/>
      <path id="DejaVuSans-66" d="M 2375 4863 
L 2375 4384 
L 1825 4384 
Q 1516 4384 1395 4259 
Q 1275 4134 1275 3809 
L 1275 3500 
L 2222 3500 
L 2222 3053 
L 1275 3053 
L 1275 0 
L 697 0 
L 697 3053 
L 147 3053 
L 147 3500 
L 697 3500 
L 697 3744 
Q 697 4328 969 4595 
Q 1241 4863 1831 4863 
L 2375 4863 
z
" transform="scale(0.015625)"/>
      <path id="DejaVuSans-63" d="M 3122 3366 
L 3122 2828 
Q 2878 2963 2633 3030 
Q 2388 3097 2138 3097 
Q 1578 3097 1268 2742 
Q 959 2388 959 1747 
Q 959 1106 1268 751 
Q 1578 397 2138 397 
Q 2388 397 2633 464 
Q 2878 531 3122 666 
L 3122 134 
Q 2881 22 2623 -34 
Q 2366 -91 2075 -91 
Q 1284 -91 818 406 
Q 353 903 353 1747 
Q 353 2603 823 3093 
Q 1294 3584 2113 3584 
Q 2378 3584 2631 3529 
Q 2884 3475 3122 3366 
z
" transform="scale(0.015625)"/>
      <path id="DejaVuSans-68" d="M 3513 2113 
L 3513 0 
L 2938 0 
L 2938 2094 
Q 2938 2591 2744 2837 
Q 2550 3084 2163 3084 
Q 1697 3084 1428 2787 
Q 1159 2491 1159 1978 
L 1159 0 
L 581 0 
L 581 4863 
L 1159 4863 
L 1159 2956 
Q 1366 3272 1645 3428 
Q 1925 3584 2291 3584 
Q 2894 3584 3203 3211 
Q 3513 2838 3513 2113 
z
" transform="scale(0.015625)"/>
      <path id="DejaVuSans-67" d="M 2906 1791 
Q 2906 2416 2648 2759 
Q 2391 3103 1925 3103 
Q 1463 3103 1205 2759 
Q 947 2416 947 1791 
Q 947 1169 1205 825 
Q 1463 481 1925 481 
Q 2391 481 2648 825 
Q 2906 1169 2906 1791 
z
M 3481 434 
Q 3481 -459 3084 -895 
Q 2688 -1331 1869 -1331 
Q 1566 -1331 1297 -1286 
Q 1028 -1241 775 -1147 
L 775 -588 
Q 1028 -725 1275 -790 
Q 1522 -856 1778 -856 
Q 2344 -856 2625 -561 
Q 2906 -266 2906 331 
L 2906 616 
Q 2728 306 2450 153 
Q 2172 0 1784 0 
Q 1141 0 747 490 
Q 353 981 353 1791 
Q 353 2603 747 3093 
Q 1141 3584 1784 3584 
Q 2172 3584 2450 3431 
Q 2728 3278 2906 2969 
L 2906 3500 
L 3481 3500 
L 3481 434 
z
" transform="scale(0.015625)"/>
     </defs>
     <use xlink:href="#DejaVuSans-45"/>
     <use xlink:href="#DejaVuSans-72" x="63.183594"/>
     <use xlink:href="#DejaVuSans-72" x="102.546875"/>
     <use xlink:href="#DejaVuSans-6f" x="141.410156"/>
     <use xlink:href="#DejaVuSans-72" x="202.591797"/>
     <use xlink:href="#DejaVuSans-6c" x="243.705078"/>
     <use xlink:href="#DejaVuSans-69" x="271.488281"/>
     <use xlink:href="#DejaVuSans-6e" x="299.271484"/>
     <use xlink:href="#DejaVuSans-65" x="362.650391"/>
     <use xlink:href="#DejaVuSans-20" x="424.173828"/>
     <use xlink:href="#DejaVuSans-50" x="455.960938"/>
     <use xlink:href="#DejaVuSans-6c" x="516.263672"/>
     <use xlink:href="#DejaVuSans-6f" x="544.046875"/>
     <use xlink:href="#DejaVuSans-74" x="605.228516"/>
     <use xlink:href="#DejaVuSans-3a" x="644.4375"/>
     <use xlink:href="#DejaVuSans-20" x="678.128906"/>
     <use xlink:href="#DejaVuSans-52" x="709.916016"/>
     <use xlink:href="#DejaVuSans-65" x="774.898438"/>
     <use xlink:href="#DejaVuSans-74" x="836.421875"/>
     <use xlink:href="#DejaVuSans-75" x="875.630859"/>
     <use xlink:href="#DejaVuSans-72" x="939.009766"/>
     <use xlink:href="#DejaVuSans-6e" x="978.373047"/>
     <use xlink:href="#DejaVuSans-73" x="1041.751953"/>
     <use xlink:href="#DejaVuSans-20" x="1093.851562"/>
     <use xlink:href="#DejaVuSans-66" x="1125.638672"/>
     <use xlink:href="#DejaVuSans-6f" x="1160.84375"/>
     <use xlink:href="#DejaVuSans-72" x="1222.025391"/>
     <use xlink:href="#DejaVuSans-20" x="1263.138672"/>
     <use xlink:href="#DejaVuSans-45" x="1294.925781"/>
     <use xlink:href="#DejaVuSans-61" x="1358.109375"/>
     <use xlink:href="#DejaVuSans-63" x="1419.388672"/>
     <use xlink:href="#DejaVuSans-68" x="1474.369141"/>
     <use xlink:href="#DejaVuSans-20" x="1537.748047"/>
     <use xlink:href="#DejaVuSans-50" x="1569.535156"/>
     <use xlink:href="#DejaVuSans-65" x="1626.212891"/>
     <use xlink:href="#DejaVuSans-72" x="1687.736328"/>
     <use xlink:href="#DejaVuSans-63" x="1726.599609"/>
     <use xlink:href="#DejaVuSans-65" x="1781.580078"/>
     <use xlink:href="#DejaVuSans-6e" x="1843.103516"/>
     <use xlink:href="#DejaVuSans-74" x="1906.482422"/>
     <use xlink:href="#DejaVuSans-61" x="1945.691406"/>
     <use xlink:href="#DejaVuSans-67" x="2006.970703"/>
     <use xlink:href="#DejaVuSans-65" x="2070.447266"/>
    </g>
   </g>
   <g id="legend_1">
    <g id="patch_7">
     <path d="M 580.754688 379.48 
L 641 379.48 
Q 643 379.48 643 377.48 
L 643 128.951875 
Q 643 126.951875 641 126.951875 
L 580.754688 126.951875 
Q 578.754688 126.951875 578.754688 128.951875 
L 578.754688 377.48 
Q 578.754688 379.48 580.754688 379.48 
z
" style="fill: #ffffff; opacity: 0.8; stroke: #cccccc; stroke-linejoin: miter"/>
    </g>
    <g id="text_21">
     <!-- Percentage -->
     <g style="fill: #262626" transform="translate(582.754688 138.550313) scale(0.1 -0.1)">
      <use xlink:href="#DejaVuSans-50"/>
      <use xlink:href="#DejaVuSans-65" x="56.677734"/>
      <use xlink:href="#DejaVuSans-72" x="118.201172"/>
      <use xlink:href="#DejaVuSans-63" x="157.064453"/>
      <use xlink:href="#DejaVuSans-65" x="212.044922"/>
      <use xlink:href="#DejaVuSans-6e" x="273.568359"/>
      <use xlink:href="#DejaVuSans-74" x="336.947266"/>
      <use xlink:href="#DejaVuSans-61" x="376.15625"/>
      <use xlink:href="#DejaVuSans-67" x="437.435547"/>
      <use xlink:href="#DejaVuSans-65" x="500.912109"/>
     </g>
    </g>
    <g id="line2d_44">
     <path d="M 585.744531 149.728438 
L 595.744531 149.728438 
L 605.744531 149.728438 
" style="fill: none; stroke: #edd1cb; stroke-width: 1.5; stroke-linecap: round"/>
    </g>
    <g id="text_22">
     <!-- 0.00 -->
     <g style="fill: #262626" transform="translate(613.744531 153.228438) scale(0.1 -0.1)">
      <use xlink:href="#DejaVuSans-30"/>
      <use xlink:href="#DejaVuSans-2e" x="63.623047"/>
      <use xlink:href="#DejaVuSans-30" x="95.410156"/>
      <use xlink:href="#DejaVuSans-30" x="159.033203"/>
     </g>
    </g>
    <g id="line2d_45">
     <path d="M 585.744531 164.406563 
L 595.744531 164.406563 
L 605.744531 164.406563 
" style="fill: none; stroke: #dfacb1; stroke-width: 1.5; stroke-linecap: round"/>
    </g>
    <g id="text_23">
     <!-- 0.15 -->
     <g style="fill: #262626" transform="translate(613.744531 167.906563) scale(0.1 -0.1)">
      <use xlink:href="#DejaVuSans-30"/>
      <use xlink:href="#DejaVuSans-2e" x="63.623047"/>
      <use xlink:href="#DejaVuSans-31" x="95.410156"/>
      <use xlink:href="#DejaVuSans-35" x="159.033203"/>
     </g>
    </g>
    <g id="line2d_46">
     <path d="M 585.744531 179.084688 
L 595.744531 179.084688 
L 605.744531 179.084688 
" style="fill: none; stroke: #c8879e; stroke-width: 1.5; stroke-linecap: round"/>
    </g>
    <g id="text_24">
     <!-- 0.30 -->
     <g style="fill: #262626" transform="translate(613.744531 182.584688) scale(0.1 -0.1)">
      <use xlink:href="#DejaVuSans-30"/>
      <use xlink:href="#DejaVuSans-2e" x="63.623047"/>
      <use xlink:href="#DejaVuSans-33" x="95.410156"/>
      <use xlink:href="#DejaVuSans-30" x="159.033203"/>
     </g>
    </g>
    <g id="line2d_47">
     <path d="M 585.744531 193.762813 
L 595.744531 193.762813 
L 605.744531 193.762813 
" style="fill: none; stroke: #a9678f; stroke-width: 1.5; stroke-linecap: round"/>
    </g>
    <g id="text_25">
     <!-- 0.45 -->
     <g style="fill: #262626" transform="translate(613.744531 197.262813) scale(0.1 -0.1)">
      <defs>
       <path id="DejaVuSans-34" d="M 2419 4116 
L 825 1625 
L 2419 1625 
L 2419 4116 
z
M 2253 4666 
L 3047 4666 
L 3047 1625 
L 3713 1625 
L 3713 1100 
L 3047 1100 
L 3047 0 
L 2419 0 
L 2419 1100 
L 313 1100 
L 313 1709 
L 2253 4666 
z
" transform="scale(0.015625)"/>
      </defs>
      <use xlink:href="#DejaVuSans-30"/>
      <use xlink:href="#DejaVuSans-2e" x="63.623047"/>
      <use xlink:href="#DejaVuSans-34" x="95.410156"/>
      <use xlink:href="#DejaVuSans-35" x="159.033203"/>
     </g>
    </g>
    <g id="line2d_48">
     <path d="M 585.744531 208.440938 
L 595.744531 208.440938 
L 605.744531 208.440938 
" style="fill: none; stroke: #834c7d; stroke-width: 1.5; stroke-linecap: round"/>
    </g>
    <g id="text_26">
     <!-- 0.60 -->
     <g style="fill: #262626" transform="translate(613.744531 211.940938) scale(0.1 -0.1)">
      <defs>
       <path id="DejaVuSans-36" d="M 2113 2584 
Q 1688 2584 1439 2293 
Q 1191 2003 1191 1497 
Q 1191 994 1439 701 
Q 1688 409 2113 409 
Q 2538 409 2786 701 
Q 3034 994 3034 1497 
Q 3034 2003 2786 2293 
Q 2538 2584 2113 2584 
z
M 3366 4563 
L 3366 3988 
Q 3128 4100 2886 4159 
Q 2644 4219 2406 4219 
Q 1781 4219 1451 3797 
Q 1122 3375 1075 2522 
Q 1259 2794 1537 2939 
Q 1816 3084 2150 3084 
Q 2853 3084 3261 2657 
Q 3669 2231 3669 1497 
Q 3669 778 3244 343 
Q 2819 -91 2113 -91 
Q 1303 -91 875 529 
Q 447 1150 447 2328 
Q 447 3434 972 4092 
Q 1497 4750 2381 4750 
Q 2619 4750 2861 4703 
Q 3103 4656 3366 4563 
z
" transform="scale(0.015625)"/>
      </defs>
      <use xlink:href="#DejaVuSans-30"/>
      <use xlink:href="#DejaVuSans-2e" x="63.623047"/>
      <use xlink:href="#DejaVuSans-36" x="95.410156"/>
      <use xlink:href="#DejaVuSans-30" x="159.033203"/>
     </g>
    </g>
    <g id="line2d_49">
     <path d="M 585.744531 223.119063 
L 595.744531 223.119063 
L 605.744531 223.119063 
" style="fill: none; stroke: #563362; stroke-width: 1.5; stroke-linecap: round"/>
    </g>
    <g id="text_27">
     <!-- 0.75 -->
     <g style="fill: #262626" transform="translate(613.744531 226.619063) scale(0.1 -0.1)">
      <use xlink:href="#DejaVuSans-30"/>
      <use xlink:href="#DejaVuSans-2e" x="63.623047"/>
      <use xlink:href="#DejaVuSans-37" x="95.410156"/>
      <use xlink:href="#DejaVuSans-35" x="159.033203"/>
     </g>
    </g>
    <g id="line2d_50">
     <path d="M 585.744531 237.797188 
L 595.744531 237.797188 
L 605.744531 237.797188 
" style="fill: none; stroke: #333333; stroke-width: 1.5; stroke-linecap: round"/>
     <defs>
      <path id="m175010de81" d="M 0 3 
C 0.795609 3 1.55874 2.683901 2.12132 2.12132 
C 2.683901 1.55874 3 0.795609 3 0 
C 3 -0.795609 2.683901 -1.55874 2.12132 -2.12132 
C 1.55874 -2.683901 0.795609 -3 0 -3 
C -0.795609 -3 -1.55874 -2.683901 -2.12132 -2.12132 
C -2.683901 -1.55874 -3 -0.795609 -3 0 
C -3 0.795609 -2.683901 1.55874 -2.12132 2.12132 
C -1.55874 2.683901 -0.795609 3 0 3 
z
" style="stroke: #ffffff; stroke-width: 0.75"/>
     </defs>
     <g>
      <use xlink:href="#m175010de81" x="595.744531" y="237.797188" style="fill: #333333; stroke: #ffffff; stroke-width: 0.75"/>
     </g>
    </g>
    <g id="text_28">
     <!-- 0.0 -->
     <g style="fill: #262626" transform="translate(613.744531 241.297188) scale(0.1 -0.1)">
      <use xlink:href="#DejaVuSans-30"/>
      <use xlink:href="#DejaVuSans-2e" x="63.623047"/>
      <use xlink:href="#DejaVuSans-30" x="95.410156"/>
     </g>
    </g>
    <g id="line2d_51">
     <path d="M 585.744531 252.475313 
L 595.744531 252.475313 
L 605.744531 252.475313 
" style="fill: none; stroke: #333333; stroke-width: 1.5; stroke-linecap: round"/>
     <defs>
      <path id="mdc4171f562" d="M -1.5 3 
L 0 1.5 
L 1.5 3 
L 3 1.5 
L 1.5 0 
L 3 -1.5 
L 1.5 -3 
L 0 -1.5 
L -1.5 -3 
L -3 -1.5 
L -1.5 0 
L -3 1.5 
z
" style="stroke: #ffffff; stroke-width: 0.75; stroke-linejoin: miter"/>
     </defs>
     <g>
      <use xlink:href="#mdc4171f562" x="595.744531" y="252.475313" style="fill: #333333; stroke: #ffffff; stroke-width: 0.75; stroke-linejoin: miter"/>
     </g>
    </g>
    <g id="text_29">
     <!-- 0.1 -->
     <g style="fill: #262626" transform="translate(613.744531 255.975313) scale(0.1 -0.1)">
      <use xlink:href="#DejaVuSans-30"/>
      <use xlink:href="#DejaVuSans-2e" x="63.623047"/>
      <use xlink:href="#DejaVuSans-31" x="95.410156"/>
     </g>
    </g>
    <g id="line2d_52">
     <path d="M 585.744531 267.153438 
L 595.744531 267.153438 
L 605.744531 267.153438 
" style="fill: none; stroke: #333333; stroke-width: 1.5; stroke-linecap: round"/>
     <defs>
      <path id="mea85ec34d6" d="M -2.12132 -2.12132 
L -2.12132 2.12132 
L 2.12132 2.12132 
L 2.12132 -2.12132 
z
" style="stroke: #ffffff; stroke-width: 0.75; stroke-linejoin: miter"/>
     </defs>
     <g>
      <use xlink:href="#mea85ec34d6" x="595.744531" y="267.153438" style="fill: #333333; stroke: #ffffff; stroke-width: 0.75; stroke-linejoin: miter"/>
     </g>
    </g>
    <g id="text_30">
     <!-- 0.2 -->
     <g style="fill: #262626" transform="translate(613.744531 270.653438) scale(0.1 -0.1)">
      <use xlink:href="#DejaVuSans-30"/>
      <use xlink:href="#DejaVuSans-2e" x="63.623047"/>
      <use xlink:href="#DejaVuSans-32" x="95.410156"/>
     </g>
    </g>
    <g id="line2d_53">
     <path d="M 585.744531 281.831563 
L 595.744531 281.831563 
L 605.744531 281.831563 
" style="fill: none; stroke: #333333; stroke-width: 1.5; stroke-linecap: round"/>
     <defs>
      <path id="mde9e69696f" d="M -1 3 
L 1 3 
L 1 1 
L 3 1 
L 3 -1 
L 1 -1 
L 1 -3 
L -1 -3 
L -1 -1 
L -3 -1 
L -3 1 
L -1 1 
z
" style="stroke: #ffffff; stroke-width: 0.75; stroke-linejoin: miter"/>
     </defs>
     <g>
      <use xlink:href="#mde9e69696f" x="595.744531" y="281.831563" style="fill: #333333; stroke: #ffffff; stroke-width: 0.75; stroke-linejoin: miter"/>
     </g>
    </g>
    <g id="text_31">
     <!-- 0.3 -->
     <g style="fill: #262626" transform="translate(613.744531 285.331563) scale(0.1 -0.1)">
      <use xlink:href="#DejaVuSans-30"/>
      <use xlink:href="#DejaVuSans-2e" x="63.623047"/>
      <use xlink:href="#DejaVuSans-33" x="95.410156"/>
     </g>
    </g>
    <g id="line2d_54">
     <path d="M 585.744531 296.509688 
L 595.744531 296.509688 
L 605.744531 296.509688 
" style="fill: none; stroke: #333333; stroke-width: 1.5; stroke-linecap: round"/>
     <defs>
      <path id="m15eb363a9e" d="M 0 -3 
L -3 -0 
L -0 3 
L 3 0 
z
" style="stroke: #ffffff; stroke-width: 0.75; stroke-linejoin: miter"/>
     </defs>
     <g>
      <use xlink:href="#m15eb363a9e" x="595.744531" y="296.509688" style="fill: #333333; stroke: #ffffff; stroke-width: 0.75; stroke-linejoin: miter"/>
     </g>
    </g>
    <g id="text_32">
     <!-- 0.4 -->
     <g style="fill: #262626" transform="translate(613.744531 300.009688) scale(0.1 -0.1)">
      <use xlink:href="#DejaVuSans-30"/>
      <use xlink:href="#DejaVuSans-2e" x="63.623047"/>
      <use xlink:href="#DejaVuSans-34" x="95.410156"/>
     </g>
    </g>
    <g id="line2d_55">
     <path d="M 585.744531 311.187813 
L 595.744531 311.187813 
L 605.744531 311.187813 
" style="fill: none; stroke: #333333; stroke-width: 1.5; stroke-linecap: round"/>
     <defs>
      <path id="m289663ab5c" d="M 0 -3 
L -1.06066 -1.06066 
L -3 -0 
L -1.06066 1.06066 
L -0 3 
L 1.06066 1.06066 
L 3 0 
L 1.06066 -1.06066 
z
" style="stroke: #ffffff; stroke-width: 0.75; stroke-linejoin: bevel"/>
     </defs>
     <g>
      <use xlink:href="#m289663ab5c" x="595.744531" y="311.187813" style="fill: #333333; stroke: #ffffff; stroke-width: 0.75; stroke-linejoin: bevel"/>
     </g>
    </g>
    <g id="text_33">
     <!-- 0.5 -->
     <g style="fill: #262626" transform="translate(613.744531 314.687813) scale(0.1 -0.1)">
      <use xlink:href="#DejaVuSans-30"/>
      <use xlink:href="#DejaVuSans-2e" x="63.623047"/>
      <use xlink:href="#DejaVuSans-35" x="95.410156"/>
     </g>
    </g>
    <g id="line2d_56">
     <path d="M 585.744531 325.865937 
L 595.744531 325.865937 
L 605.744531 325.865937 
" style="fill: none; stroke: #333333; stroke-width: 1.5; stroke-linecap: round"/>
     <defs>
      <path id="m35bd2df321" d="M 0 -3 
L -3 3 
L 3 3 
z
" style="stroke: #ffffff; stroke-width: 0.75; stroke-linejoin: miter"/>
     </defs>
     <g>
      <use xlink:href="#m35bd2df321" x="595.744531" y="325.865937" style="fill: #333333; stroke: #ffffff; stroke-width: 0.75; stroke-linejoin: miter"/>
     </g>
    </g>
    <g id="text_34">
     <!-- 0.6 -->
     <g style="fill: #262626" transform="translate(613.744531 329.365937) scale(0.1 -0.1)">
      <use xlink:href="#DejaVuSans-30"/>
      <use xlink:href="#DejaVuSans-2e" x="63.623047"/>
      <use xlink:href="#DejaVuSans-36" x="95.410156"/>
     </g>
    </g>
    <g id="line2d_57">
     <path d="M 585.744531 340.544062 
L 595.744531 340.544062 
L 605.744531 340.544062 
" style="fill: none; stroke: #333333; stroke-width: 1.5; stroke-linecap: round"/>
     <defs>
      <path id="m81c7b84178" d="M -2.12132 -2.12132 
L -1.5 -0 
L -2.12132 2.12132 
L -0 1.5 
L 2.12132 2.12132 
L 1.5 0 
L 2.12132 -2.12132 
L 0 -1.5 
z
" style="stroke: #ffffff; stroke-width: 0.75; stroke-linejoin: bevel"/>
     </defs>
     <g>
      <use xlink:href="#m81c7b84178" x="595.744531" y="340.544062" style="fill: #333333; stroke: #ffffff; stroke-width: 0.75; stroke-linejoin: bevel"/>
     </g>
    </g>
    <g id="text_35">
     <!-- 0.7 -->
     <g style="fill: #262626" transform="translate(613.744531 344.044062) scale(0.1 -0.1)">
      <use xlink:href="#DejaVuSans-30"/>
      <use xlink:href="#DejaVuSans-2e" x="63.623047"/>
      <use xlink:href="#DejaVuSans-37" x="95.410156"/>
     </g>
    </g>
    <g id="line2d_58">
     <path d="M 585.744531 355.222188 
L 595.744531 355.222188 
L 605.744531 355.222188 
" style="fill: none; stroke: #333333; stroke-width: 1.5; stroke-linecap: round"/>
     <defs>
      <path id="m4e68b6771d" d="M -0 3 
L 3 -3 
L -3 -3 
z
" style="stroke: #ffffff; stroke-width: 0.75; stroke-linejoin: miter"/>
     </defs>
     <g>
      <use xlink:href="#m4e68b6771d" x="595.744531" y="355.222188" style="fill: #333333; stroke: #ffffff; stroke-width: 0.75; stroke-linejoin: miter"/>
     </g>
    </g>
    <g id="text_36">
     <!-- 0.8 -->
     <g style="fill: #262626" transform="translate(613.744531 358.722188) scale(0.1 -0.1)">
      <defs>
       <path id="DejaVuSans-38" d="M 2034 2216 
Q 1584 2216 1326 1975 
Q 1069 1734 1069 1313 
Q 1069 891 1326 650 
Q 1584 409 2034 409 
Q 2484 409 2743 651 
Q 3003 894 3003 1313 
Q 3003 1734 2745 1975 
Q 2488 2216 2034 2216 
z
M 1403 2484 
Q 997 2584 770 2862 
Q 544 3141 544 3541 
Q 544 4100 942 4425 
Q 1341 4750 2034 4750 
Q 2731 4750 3128 4425 
Q 3525 4100 3525 3541 
Q 3525 3141 3298 2862 
Q 3072 2584 2669 2484 
Q 3125 2378 3379 2068 
Q 3634 1759 3634 1313 
Q 3634 634 3220 271 
Q 2806 -91 2034 -91 
Q 1263 -91 848 271 
Q 434 634 434 1313 
Q 434 1759 690 2068 
Q 947 2378 1403 2484 
z
M 1172 3481 
Q 1172 3119 1398 2916 
Q 1625 2713 2034 2713 
Q 2441 2713 2670 2916 
Q 2900 3119 2900 3481 
Q 2900 3844 2670 4047 
Q 2441 4250 2034 4250 
Q 1625 4250 1398 4047 
Q 1172 3844 1172 3481 
z
" transform="scale(0.015625)"/>
      </defs>
      <use xlink:href="#DejaVuSans-30"/>
      <use xlink:href="#DejaVuSans-2e" x="63.623047"/>
      <use xlink:href="#DejaVuSans-38" x="95.410156"/>
     </g>
    </g>
    <g id="line2d_59">
     <path d="M 585.744531 369.900312 
L 595.744531 369.900312 
L 605.744531 369.900312 
" style="fill: none; stroke: #333333; stroke-width: 1.5; stroke-linecap: round"/>
     <defs>
      <path id="mf8de99213f" d="M -1.5 -2.598076 
L -1.299038 -0.75 
L -3 -0 
L -1.299038 0.75 
L -1.5 2.598076 
L -0 1.5 
L 1.5 2.598076 
L 1.299038 0.75 
L 3 0 
L 1.299038 -0.75 
L 1.5 -2.598076 
L 0 -1.5 
z
" style="stroke: #ffffff; stroke-width: 0.75; stroke-linejoin: bevel"/>
     </defs>
     <g>
      <use xlink:href="#mf8de99213f" x="595.744531" y="369.900312" style="fill: #333333; stroke: #ffffff; stroke-width: 0.75; stroke-linejoin: bevel"/>
     </g>
    </g>
    <g id="text_37">
     <!-- 0.9 -->
     <g style="fill: #262626" transform="translate(613.744531 373.400312) scale(0.1 -0.1)">
      <defs>
       <path id="DejaVuSans-39" d="M 703 97 
L 703 672 
Q 941 559 1184 500 
Q 1428 441 1663 441 
Q 2288 441 2617 861 
Q 2947 1281 2994 2138 
Q 2813 1869 2534 1725 
Q 2256 1581 1919 1581 
Q 1219 1581 811 2004 
Q 403 2428 403 3163 
Q 403 3881 828 4315 
Q 1253 4750 1959 4750 
Q 2769 4750 3195 4129 
Q 3622 3509 3622 2328 
Q 3622 1225 3098 567 
Q 2575 -91 1691 -91 
Q 1453 -91 1209 -44 
Q 966 3 703 97 
z
M 1959 2075 
Q 2384 2075 2632 2365 
Q 2881 2656 2881 3163 
Q 2881 3666 2632 3958 
Q 2384 4250 1959 4250 
Q 1534 4250 1286 3958 
Q 1038 3666 1038 3163 
Q 1038 2656 1286 2365 
Q 1534 2075 1959 2075 
z
" transform="scale(0.015625)"/>
      </defs>
      <use xlink:href="#DejaVuSans-30"/>
      <use xlink:href="#DejaVuSans-2e" x="63.623047"/>
      <use xlink:href="#DejaVuSans-39" x="95.410156"/>
     </g>
    </g>
   </g>
  </g>
 </g>
 <defs>
  <clipPath id="p8ac731daca">
   <rect x="90" y="51.84" width="558" height="332.64"/>
  </clipPath>
 </defs>
</svg>
